<?xml version="1.0" encoding="utf-8"?>
<!-- Generator: Adobe Illustrator 24.0.1, SVG Export Plug-In . SVG Version: 6.00 Build 0)  -->
<svg version="1.1" xmlns="http://www.w3.org/2000/svg" xmlns:xlink="http://www.w3.org/1999/xlink" x="0px" y="0px"
	 viewBox="0 0 500 500" style="enable-background:new 0 0 500 500;" xml:space="preserve">
<style type="text/css">
	.st0{fill:#E0E0E0;}
	.st1{fill:none;}
	.st2{fill-rule:evenodd;clip-rule:evenodd;fill:#EBEBEB;}
	.st3{display:none;}
	.st4{display:inline;fill:#F5F5F5;}
	.st5{fill:#455A64;}
	.st6{fill:#263238;}
	.st7{fill:#B78876;}
	.st8{fill:#AA6550;}
	.st9{fill:#FFFFFF;}
	.st10{fill:#008ADF;}
	.st11{opacity:0.3;}
	.st12{fill:#FAFAFA;}
	.st13{fill:#E8505B;}
	.st14{fill:#F5F5F5;}
	.st15{opacity:0.4;}
</style>
<g id="Background_Complete">
	<g>
		<g>
			<path class="st0" d="M383.4,39.6c0,1.6-1.3,2.9-2.9,2.9s-2.9-1.3-2.9-2.9c0-1.6,1.3-2.9,2.9-2.9S383.4,38,383.4,39.6z"/>
		</g>
		<g>
			<g>
				<path class="st0" d="M398.7,235.9c0,0,0-0.1,0-0.4c0-0.3,0-0.7,0-1.2c0-1.1,0-2.6,0-4.6c0-4,0-9.9-0.1-17.1
					c0-14.6-0.1-35-0.1-58.2l0.1,0.2c-4-4.9-8.2-9.9-12.5-15.1c-1.9-2.3-3.8-4.6-5.6-6.8l-0.1-0.1l0-0.1c0-25.9,0.1-49,0.1-65.6
					c0-8.3,0.1-15,0.1-19.6c0-2.3,0-4.1,0-5.3c0-0.6,0-1,0-1.4c0-0.3,0-0.5,0-0.5s0,0.2,0,0.5c0,0.3,0,0.8,0,1.4c0,1.2,0,3,0,5.3
					c0,4.6,0,11.3,0.1,19.6c0,16.6,0.1,39.7,0.1,65.6l-0.1-0.2c1.8,2.2,3.7,4.5,5.6,6.8c4.3,5.2,8.4,10.2,12.5,15.1l0.1,0.1l0,0.1
					c0,23.2-0.1,43.6-0.1,58.2c0,7.3-0.1,13.1-0.1,17.1c0,2,0,3.5,0,4.6c0,0.5,0,0.9,0,1.2C398.7,235.7,398.7,235.9,398.7,235.9z"/>
			</g>
		</g>
	</g>
	<g>
		<g>
			<g>
				<g>
					<g>
						<g>
							<g>
								<path class="st1" d="M438.8,225.5c-0.9,1.2-1.9,2.2-3,3.1l0.8,3.9l-6,2.7l-2.4-3.2c-1.4,0.2-2.9,0.3-4.3,0.1l-2.2,3.3
									l-6.2-2.4l0.6-4c-1.2-0.9-2.2-1.9-3.1-3L409,227l-2.7-6l3.2-2.4c-0.2-1.4-0.3-2.9-0.1-4.3l-3.3-2.2l2.4-6.2l4,0.6
									c0.9-1.2,1.9-2.2,3-3.1l-0.8-3.9l6-2.7l2.4,3.2c1.4-0.2,2.9-0.3,4.3-0.1l2.2-3.3l6.2,2.4l-0.6,4c1.2,0.9,2.2,1.9,3.1,3
									l3.9-0.8l2.7,6l-3.2,2.4c0.2,1.4,0.3,2.9,0.1,4.3l3.3,2.2l-2.4,6.2L438.8,225.5L438.8,225.5z M432.1,218.8
									c1.4-3.7-0.4-7.8-4.1-9.2c-3.7-1.4-7.8,0.4-9.2,4.1c-1.4,3.7,0.4,7.8,4.1,9.2C426.6,224.3,430.7,222.4,432.1,218.8z"/>
							</g>
						</g>
					</g>
				</g>
			</g>
			<g>
				<g>
					<g>
						<g>
							<g>
								<g>
									<path class="st0" d="M432.1,218.8c0,0-0.1,0.6-0.8,1.6c-0.6,0.9-1.8,2.2-3.8,2.8c-1,0.3-2.1,0.4-3.3,0.2
										c-1.2-0.2-2.4-0.7-3.5-1.7c-0.5-0.4-1-1-1.4-1.6c-0.4-0.6-0.7-1.3-0.9-2c-0.4-1.4-0.3-3.1,0.2-4.5c0.6-1.5,1.6-2.7,2.9-3.5
										c0.6-0.4,1.3-0.7,2-0.9c0.7-0.2,1.4-0.3,2.1-0.3c1.4,0,2.6,0.5,3.7,1.1c1,0.6,1.8,1.5,2.3,2.4c1.1,1.8,1.1,3.6,1,4.7
										C432.4,218.2,432.1,218.8,432.1,218.8c0,0,0.2-0.6,0.3-1.7c0.1-1.1,0-2.8-1-4.5c-0.5-0.8-1.3-1.7-2.3-2.2
										c-1-0.6-2.2-1-3.5-1c-0.6,0-1.3,0.1-2,0.3c-0.7,0.2-1.3,0.5-1.9,0.8c-1.2,0.8-2.2,1.9-2.7,3.3c-0.5,1.4-0.6,2.9-0.2,4.3
										c0.2,0.7,0.5,1.3,0.8,1.9c0.4,0.6,0.8,1.1,1.3,1.5c1,0.9,2.1,1.4,3.3,1.6c1.1,0.2,2.2,0.1,3.2-0.1c1.9-0.5,3.1-1.7,3.8-2.6
										C431.9,219.4,432.1,218.8,432.1,218.8z"/>
								</g>
							</g>
						</g>
					</g>
				</g>
			</g>
			<g>
				<g>
					<g>
						<g>
							<g>
								<g>
									<path class="st0" d="M438.8,225.5c0,0,0.1,0,0.2,0c0.2,0,0.4,0.1,0.8,0.1c0.7,0.1,1.7,0.2,3,0.4l-0.1,0
										c0.6-1.6,1.4-3.7,2.3-6.2l0,0.1c-1-0.7-2.1-1.4-3.3-2.2l-0.1,0l0-0.1c0.1-1.3,0.1-2.8-0.1-4.3l0-0.1l0.1,0
										c1-0.7,2.1-1.6,3.2-2.4l0,0.2c-0.8-1.9-1.8-3.9-2.7-6l0.2,0.1c-1.2,0.2-2.6,0.5-3.9,0.8l-0.1,0l-0.1-0.1
										c-0.8-1-1.9-2.1-3.1-2.9l-0.1-0.1l0-0.1c0.2-1.2,0.4-2.6,0.6-4l0.1,0.2c-1.9-0.7-4-1.5-6.2-2.4l0.2-0.1
										c-0.7,1-1.5,2.2-2.2,3.3l-0.1,0.1l-0.1,0c-1.3-0.1-2.8-0.1-4.3,0.1l-0.1,0l-0.1-0.1c-0.7-1-1.6-2.1-2.4-3.2l0.2,0.1
										c-1.9,0.9-4,1.8-6,2.7l0.1-0.2c0.2,1.2,0.5,2.6,0.8,3.9l0,0.1l-0.1,0.1c-1.1,0.8-2.1,1.9-2.9,3.1l0,0l0,0
										c-0.1,0,0.2-0.1-0.2,0.1l0,0l0,0l0,0l0,0l-0.1,0l-0.1,0l-0.2,0l-0.5-0.1l-1-0.1c-0.7-0.1-1.3-0.2-2-0.3l0.2-0.1
										c-0.8,2.1-1.6,4.1-2.4,6.2l-0.1-0.2c1.1,0.8,2.2,1.5,3.3,2.2l0.1,0.1l0,0.1c-0.2,1.4-0.1,2.9,0.1,4.3l0,0.1l-0.1,0.1
										c-1.1,0.8-2.2,1.6-3.2,2.4l0.1-0.2c0.9,2.1,1.8,4.1,2.7,6.1l-0.2-0.1c1.3-0.3,2.6-0.5,3.9-0.8l0.1,0l0.1,0.1
										c0.9,1.1,2,2.1,3.1,2.9l0.1,0.1l0,0.1c-0.2,1.4-0.4,2.7-0.6,4l-0.1-0.2c2.2,0.8,4.2,1.6,6.2,2.4l-0.2,0.1
										c0.8-1.2,1.5-2.3,2.2-3.3l0-0.1l0.1,0c1.5,0.2,2.9,0.1,4.3-0.1l0.1,0l0,0.1c0.9,1.2,1.6,2.2,2.4,3.2l-0.1,0
										c2.3-1,4.3-1.9,6.1-2.7l-0.1,0.1c-0.3-1.6-0.5-2.9-0.7-3.9l0,0l0,0c1.1-0.9,1.9-1.7,2.3-2.3c0.2-0.3,0.4-0.5,0.5-0.6
										C438.7,225.6,438.8,225.5,438.8,225.5c0,0,0,0.1-0.1,0.2c-0.1,0.1-0.3,0.4-0.5,0.6c-0.5,0.6-1.2,1.4-2.3,2.3l0-0.1
										c0.2,1.1,0.5,2.4,0.8,3.9l0,0.1l-0.1,0c-1.7,0.8-3.7,1.7-6,2.7l-0.1,0l-0.1-0.1c-0.7-1-1.5-2-2.4-3.2l0.1,0.1
										c-1.4,0.2-2.8,0.3-4.3,0.1l0.1-0.1c-0.7,1.1-1.4,2.2-2.2,3.3l-0.1,0.1l-0.1,0c-2-0.7-4-1.5-6.2-2.4l-0.1,0l0-0.1
										c0.2-1.3,0.4-2.6,0.6-4l0.1,0.2c-1.2-0.8-2.2-1.8-3.2-3l0.2,0.1c-1.3,0.3-2.6,0.5-3.9,0.8l-0.1,0l-0.1-0.1
										c-0.9-2-1.8-4-2.7-6l-0.1-0.1l0.1-0.1c1.1-0.8,2.1-1.6,3.2-2.4l-0.1,0.2c-0.2-1.4-0.3-2.9-0.1-4.4l0.1,0.2
										c-1.1-0.7-2.2-1.5-3.3-2.2l-0.1-0.1l0.1-0.2c0.8-2,1.6-4.1,2.4-6.2l0.1-0.2l0.2,0c0.7,0.1,1.3,0.2,2,0.3l1,0.1l0.5,0.1
										l0.2,0l0.1,0l0.1,0l0,0l0,0l0,0l0,0c-0.4,0.2-0.1,0-0.2,0.1l0,0l0,0c0.9-1.2,1.9-2.3,3-3.2l-0.1,0.2
										c-0.3-1.3-0.5-2.7-0.8-3.9l0-0.2l0.1-0.1c2.1-0.9,4.1-1.8,6.1-2.7l0.1-0.1l0.1,0.1c0.8,1.1,1.6,2.2,2.4,3.2l-0.2-0.1
										c1.5-0.2,3-0.3,4.4-0.1l-0.2,0.1c0.8-1.1,1.5-2.3,2.2-3.3l0.1-0.1l0.1,0.1c2.1,0.8,4.2,1.6,6.2,2.4l0.1,0.1l0,0.1
										c-0.2,1.4-0.4,2.7-0.6,4l-0.1-0.2c1.2,0.9,2.3,2,3.2,3l-0.2-0.1c1.4-0.3,2.7-0.5,3.9-0.8l0.1,0l0.1,0.1
										c0.9,2.1,1.8,4.1,2.7,6.1l0,0.1l-0.1,0.1c-1.1,0.8-2.2,1.6-3.2,2.4l0.1-0.1c0.2,1.5,0.2,3,0.1,4.3l-0.1-0.1
										c1.2,0.8,2.3,1.6,3.3,2.2l0.1,0l0,0.1c-1,2.5-1.8,4.6-2.4,6.2l0,0l-0.1,0c-1.3-0.2-2.3-0.4-2.9-0.5
										c-0.3-0.1-0.6-0.1-0.8-0.1C438.9,225.6,438.8,225.5,438.8,225.5z"/>
								</g>
							</g>
						</g>
					</g>
				</g>
			</g>
		</g>
		<g>
			<g>
				<g>
					<g>
						<g>
							<path class="st2" d="M470,168.8c-1.4,1.9-2.9,3.5-4.7,4.9l1.2,6.2l-9.5,4.2l-3.8-5.1c-2.2,0.4-4.5,0.4-6.8,0.2l-3.5,5.2
								l-9.7-3.8l0.9-6.2c-1.9-1.4-3.5-2.9-4.9-4.7L423,171l-4.2-9.5l5.1-3.8c-0.4-2.2-0.4-4.5-0.2-6.8l-5.2-3.5l3.8-9.7l6.2,0.9
								c1.4-1.9,2.9-3.5,4.7-4.9l-1.2-6.2l9.5-4.2l3.8,5.1c2.2-0.4,4.5-0.4,6.8-0.2l3.5-5.2l9.7,3.8l-0.9,6.2
								c1.9,1.4,3.5,2.9,4.9,4.7l6.2-1.2l4.2,9.5l-5.1,3.8c0.4,2.2,0.4,4.5,0.2,6.8l5.2,3.5l-3.8,9.7L470,168.8L470,168.8z
								 M459.5,158.1c2.2-5.8-0.7-12.3-6.4-14.5c-5.8-2.2-12.3,0.7-14.5,6.4c-2.2,5.8,0.7,12.3,6.4,14.5
								C450.8,166.8,457.2,163.9,459.5,158.1z"/>
						</g>
					</g>
				</g>
			</g>
		</g>
	</g>
	<g>
		<g>
			<circle class="st0" cx="92.3" cy="204.4" r="3"/>
		</g>
		<g>
			<g>
				<path class="st0" d="M92.3,299.6c-0.1,0-0.3-20.8-0.3-46.5c0-25.7,0.1-46.5,0.3-46.5c0.1,0,0.3,20.8,0.3,46.5
					C92.6,278.8,92.5,299.6,92.3,299.6z"/>
			</g>
		</g>
	</g>
	<g>
		<g>
			<path class="st0" d="M204.5,60c0,1.7-1.3,3-3,3c-1.7,0-3-1.3-3-3c0-1.7,1.3-3,3-3C203.1,57,204.5,58.4,204.5,60z"/>
		</g>
		<g>
			<g>
				<path class="st0" d="M201.5,251.1c-0.1,0-0.3-42.3-0.3-94.5c0-52.2,0.1-94.5,0.3-94.5c0.1,0,0.3,42.3,0.3,94.5
					C201.7,208.8,201.6,251.1,201.5,251.1z"/>
			</g>
		</g>
	</g>
	<g>
		<g>
			<path class="st0" d="M44.2,172c0,1.8-1.4,3.2-3.2,3.2c-1.8,0-3.2-1.4-3.2-3.2c0-1.8,1.4-3.2,3.2-3.2
				C42.8,168.8,44.2,170.3,44.2,172z"/>
		</g>
		<g>
			<g>
				<path class="st0" d="M41.2,172c0,0,0,0.2,0,0.5c0,0.3,0,0.8,0,1.5c0,1.3,0,3.2,0,5.7c0,5,0,12.3,0.1,21.5
					c0,18.4,0.1,44.4,0.1,74.6l0,0.1l0,0.1c-4.6,6.3-9.3,12.9-14.2,19.7l0-0.2c0,8.4,0,17.1,0,26c0,22.8,0,44.4,0,63.7l-0.1-0.2
					c6.1,7.5,11.9,14.4,17.2,20.9l0,0.1l0,0.1c0,19.3-0.1,35.1-0.1,46.1c0,5.5,0,9.8-0.1,12.7c0,1.5,0,2.6,0,3.3c0,0.8,0,1.1,0,1.1
					s0-0.4,0-1.1c0-0.8,0-1.9,0-3.3c0-2.9,0-7.2-0.1-12.7c0-11-0.1-26.9-0.1-46.1l0,0.1c-5.3-6.4-11.1-13.4-17.3-20.9l-0.1-0.1v-0.1
					c0-19.3,0-40.9,0-63.7c0-8.9,0-17.6,0-26v-0.1l0-0.1c4.9-6.8,9.7-13.4,14.2-19.7l0,0.1c0-30.2,0.1-56.2,0.1-74.6
					c0-9.2,0.1-16.5,0.1-21.5c0-2.5,0-4.4,0-5.7c0-0.6,0-1.1,0-1.5C41.2,172.2,41.2,172,41.2,172z"/>
			</g>
		</g>
	</g>
	<g>
		<g>
			<circle class="st0" cx="269.8" cy="127.7" r="3.6"/>
		</g>
		<g>
			<circle class="st0" cx="250" cy="334.4" r="3.6"/>
		</g>
		<g>
			<g>
				<path class="st0" d="M270.4,127.7c0,0,0,0.1,0,0.3c0,0.2,0,0.5,0,0.9c0,0.8,0,2.1,0,3.6c0,3.2,0,7.8,0.1,13.7
					c0,11.7,0.1,28.3,0.1,47.9l0,0.1l-0.1,0.1c-6.3,6.3-13.2,13.2-20.3,20.4l0.1-0.2c0,3.6,0,7.4,0,11.3c0,29.4-0.1,56.1-0.1,75.4
					c0,9.6-0.1,17.4-0.1,22.8c0,2.7,0,4.8,0,6.2c0,0.7,0,1.2,0,1.6c0,0.4,0,0.6,0,0.6s0-0.2,0-0.6c0-0.4,0-0.9,0-1.6
					c0-1.4,0-3.5,0-6.2c0-5.4,0-13.2-0.1-22.8c0-19.3,0-45.9-0.1-75.4c0-3.9,0-7.7,0-11.3v-0.1l0.1-0.1c7.2-7.2,14.1-14.1,20.4-20.3
					l-0.1,0.2c0-19.5,0.1-36.1,0.1-47.9c0-5.8,0.1-10.5,0.1-13.7c0-1.6,0-2.8,0-3.6c0-0.4,0-0.7,0-0.9
					C270.3,127.8,270.4,127.7,270.4,127.7z"/>
			</g>
		</g>
	</g>
</g>
<g id="Background_Simple" class="st3">
	<path class="st4" d="M86.7,278.7c10.1-6.3,15.5-20,10.8-31c-2.8-6.6-8.9-12-9.3-19.1c-0.5-7.6,5.5-13.9,7.8-21.2
		c4-12.6-5.8-27.6-19-29l0.6,0.1c-17.7-5.1-32.4,5.5-42.3,20.7c-9.9,15.2-10.9,35.3-4.5,52.2c4.2,11.1,11.6,21.4,22,27.1
		C63.1,284.3,76.6,285,86.7,278.7z"/>
	<path class="st4" d="M468.9,166.9c-1.8-6.8-6.9-12.9-13.6-15.1c-7.4-2.4-16.9-0.7-21.8-6.7c-4.1-5.1-2.1-12.7-3.8-19
		c-1.6-6.1-6.9-11.2-13.1-12.4c-6.2-1.2-14.7,0-23,6.2c-18.6,15.5-20.2,41-8.6,62c8.1,14.6,23,25.8,39.7,27.5
		c16.7,1.7,34.4-6.9,41.7-22C469.5,181.2,470.7,173.7,468.9,166.9z"/>
	<circle class="st4" cx="218.4" cy="107.7" r="41.3"/>
</g>
<g id="Chair">
	<g>
		<g>
			<path class="st5" d="M161.8,332.4c-3.9-6.7-8.1-13.4-14.3-19c-15.6-14.1-42.4-18.3-65.2-13.2C64.8,304.1,48.1,314,43.5,328
				c-2.1,6.3-1.6,13-1,19.5C46.8,390,68.1,467.2,69,469l143.5-0.6C204.1,421.4,186.9,375.5,161.8,332.4z"/>
		</g>
		<g>
			<g>
				<path class="st6" d="M212.5,468.4c0,0-0.1-0.4-0.2-1.1c-0.1-0.7-0.4-1.8-0.6-3.2c-0.3-1.4-0.6-3.2-1-5.2c-0.5-2.1-1-4.4-1.6-7.1
					c-2.4-10.7-6.4-26-12.8-44.5c-6.5-18.4-15.5-40-27.9-62.7c-0.8-1.4-1.6-2.8-2.3-4.3c-0.8-1.4-1.6-2.9-2.4-4.3
					c-1.6-2.9-3.3-5.8-5.1-8.6c-3.6-5.7-7.8-11.3-13.3-15.6c-0.7-0.6-1.4-1.1-2.1-1.6c-0.7-0.5-1.4-1-2.2-1.5
					c-1.5-0.9-3-1.9-4.6-2.6l-2.4-1.2l-2.5-1l-1.2-0.5l-1.3-0.4l-2.6-0.9c-6.9-2.1-14.2-3.3-21.7-3.6c-7.4-0.2-14.8,0.4-21.9,1.9
					c-7.1,1.6-13.9,4-20,7.4c-3.1,1.7-6,3.6-8.6,5.9c-2.6,2.2-5,4.7-6.9,7.5c-0.4,0.7-0.9,1.4-1.3,2.1c-0.4,0.7-0.8,1.5-1.1,2.2
					c-0.3,0.8-0.6,1.5-0.9,2.3c-0.3,0.8-0.5,1.6-0.7,2.4c-0.8,3.2-1,6.5-0.9,9.7c0.1,3.2,0.4,6.4,0.8,9.5c0.4,3.1,0.7,6.2,1.2,9.2
					c0.9,6.1,1.9,11.9,2.9,17.6c2.1,11.3,4.3,21.8,6.4,31.3c4.3,19.1,8.2,34.4,11,45c1.4,5.3,2.5,9.4,3.3,12.2
					c0.4,1.4,0.7,2.4,0.9,3.2c0.2,0.7,0.3,1.1,0.3,1.1s-0.1-0.4-0.4-1.1c-0.2-0.7-0.5-1.8-0.9-3.1c-0.8-2.8-1.9-6.9-3.4-12.1
					c-2.8-10.6-6.8-25.9-11.1-45c-2.1-9.5-4.4-20-6.5-31.3c-1-5.7-2.1-11.5-2.9-17.6c-0.5-3-0.8-6.1-1.2-9.3
					c-0.4-3.1-0.7-6.3-0.8-9.6c-0.1-3.2,0.1-6.6,0.9-9.8c0.2-0.8,0.4-1.6,0.7-2.4c0.3-0.8,0.6-1.6,0.9-2.4c0.4-0.8,0.8-1.5,1.2-2.3
					c0.4-0.7,0.9-1.4,1.4-2.2c1.9-2.8,4.3-5.3,6.9-7.6c2.6-2.3,5.6-4.2,8.7-5.9c6.2-3.4,13-5.9,20.1-7.5c7.1-1.5,14.6-2.2,22-2
					c7.5,0.3,14.8,1.5,21.8,3.6l2.6,0.9l1.3,0.4l1.3,0.5l2.5,1l2.4,1.2c1.6,0.7,3.1,1.7,4.7,2.6c0.8,0.5,1.5,1,2.2,1.5
					c0.7,0.5,1.5,1,2.1,1.6c5.6,4.3,9.9,10,13.4,15.7c1.8,2.9,3.5,5.8,5.1,8.7c0.8,1.4,1.6,2.9,2.4,4.3c0.8,1.4,1.6,2.9,2.3,4.3
					c12.3,22.8,21.3,44.3,27.8,62.8c6.4,18.5,10.3,33.9,12.7,44.6c0.6,2.7,1.1,5.1,1.5,7.1c0.4,2.1,0.7,3.8,1,5.2
					c0.3,1.4,0.5,2.5,0.6,3.2C212.5,468,212.5,468.4,212.5,468.4z"/>
			</g>
		</g>
		<g>
			<g>
				<path class="st6" d="M49.3,318c0,0,0,0.1,0,0.4c0,0.3-0.1,0.7-0.2,1.2c-0.1,1-0.3,2.6-0.4,4.5c-0.2,3.9,0,9.7,1.2,16.6
					c2.4,13.9,5.4,33.2,9.7,54.3c2.2,10.5,4.6,20.5,7.1,29.5c2.5,9,5.2,17,7.6,23.6c2.5,6.6,4.7,11.9,6.3,15.5
					c0.8,1.8,1.4,3.2,1.9,4.1c0.2,0.5,0.4,0.8,0.5,1.1c0.1,0.2,0.2,0.4,0.1,0.4c0,0-4.1-7.7-9.1-20.9c-2.5-6.6-5.2-14.6-7.7-23.6
					c-2.5-9-4.9-19-7.1-29.5c-4.3-21.1-7.2-40.4-9.6-54.3c-1.1-7-1.3-12.7-1-16.7C48.8,320.1,49.3,318,49.3,318z"/>
			</g>
		</g>
		<g>
			<g>
				<path class="st6" d="M67.9,351.9c0,0.1-1,0.3-2.6,0.9c-1.6,0.6-3.6,1.5-5.7,3c-4.2,2.9-6.2,6.7-6.3,6.6c0,0,0.4-1,1.4-2.4
					c1-1.4,2.6-3.1,4.7-4.6c2.1-1.5,4.3-2.4,5.9-2.9C66.9,352,67.9,351.9,67.9,351.9z"/>
			</g>
		</g>
		<g>
			<g>
				<path class="st6" d="M62.3,361.5c0,0.2-1.9,0.1-4.1,0.6c-2.2,0.5-3.9,1.4-4,1.2c-0.1-0.1,1.5-1.2,3.9-1.8
					C60.3,361.1,62.3,361.4,62.3,361.5z"/>
			</g>
		</g>
		<g>
			<g>
				<path class="st6" d="M58.2,409.9c-0.1,0,0-0.3,0.2-0.6c0.2-0.3,0.6-0.7,1.2-0.9c0.6-0.2,1.2-0.2,1.5-0.1
					c0.4,0.1,0.6,0.3,0.5,0.4c-0.1,0.1-0.9-0.2-1.9,0.2C58.8,409.2,58.3,410,58.2,409.9z"/>
			</g>
		</g>
		<g>
			<g>
				<path class="st6" d="M60.1,414c-0.1,0-0.1-1,0.9-1.8c0.9-0.7,1.9-0.6,1.9-0.5c0,0.1-0.8,0.2-1.6,0.9
					C60.5,413.3,60.3,414.1,60.1,414z"/>
			</g>
		</g>
	</g>
</g>
<g id="Character">
	<g>
		<g>
			<path class="st7" d="M245.4,429.6c0,0-3.2-78.5-6.2-92.1c-3.8-17.3-18.3-27.8-18.3-27.8l-5.6,135l5.8,3.5l3.4,1.8
				c1.5,5.7-1.6,7.1,14.1,11.2c1.3,0.3,26.3,4.3,26.3,4.3l2.5-25.5L245.4,429.6z"/>
			<g>
				<g>
					<g>
						<g>
							<path class="st7" d="M288.2,464.6c0,0-9.1,0.6-12.8,2.1c-4,1.6-9,0.7-12.3-1.5c-3.4-2.2-5.3-4.2-5.3-4.2l-12.4,0.1
								c0,0-6.1-6-2.7-15.3c0.6-1.6,1.2-2.9,2.7-4.9c1.4-1.6,2.1-2.6,6.1-3.4l16.4,2.5c0,0,22.7-2.1,26.8-0.3c0,0,5.1,2.9,6.7,4.1
								c0.6,0.5,2.5,6.2-1.1,9.3c0,0,3.3,2.5,1.6,4.8l-0.8,1c0,0,2.2,2.8,1.1,4c-1.1,1.2-10.7,7.1-14.2,5.9
								c-3.5-1.3-1.1-4.2,0.5-4.8"/>
						</g>
					</g>
				</g>
				<g>
					<g>
						<path class="st8" d="M297.7,448.3c0,0-0.4,0.1-1.2,0.5c-0.8,0.3-1.9,0.7-3.3,1.2c-0.7,0.2-1.5,0.5-2.3,0.7
							c-0.8,0.2-1.7,0.4-2.7,0.8c-0.9,0.3-1.9,0.8-2.6,1.7c-0.7,0.8-1.1,2.1-0.6,3.3c0.2,0.6,0.7,1,1.2,1.3c0.5,0.3,1.1,0.4,1.6,0.4
							c1.1,0.1,2.1-0.1,3.1-0.2c1.9-0.3,3.6-0.9,5-1.4c1.4-0.5,2.5-1,3.2-1.3c0.7-0.3,1.2-0.5,1.1-0.6c0,0-0.4,0.1-1.2,0.4
							c-0.8,0.3-1.9,0.7-3.3,1.2c-1.4,0.5-3.1,1-5,1.3c-0.9,0.1-2,0.3-3,0.2c-0.5,0-1-0.2-1.5-0.4c-0.4-0.2-0.8-0.6-1-1.1
							c-0.4-1,0-2.1,0.6-2.9c0.6-0.8,1.6-1.2,2.4-1.6c0.9-0.3,1.8-0.5,2.6-0.8c0.8-0.3,1.6-0.5,2.3-0.8c1.4-0.5,2.5-1,3.2-1.3
							C297.3,448.5,297.7,448.3,297.7,448.3z"/>
					</g>
				</g>
				<g>
					<g>
						<path class="st8" d="M296.7,441.3c0,0-0.4,0.1-1.2,0.5c-0.8,0.3-1.9,0.8-3.2,1.2c-1.4,0.5-3,1-4.9,1.5c-0.9,0.3-2,0.5-2.8,1.2
							c-0.4,0.4-0.7,0.9-0.8,1.5c-0.1,0.6,0,1.2,0.3,1.7c0.5,1.1,1.5,1.8,2.6,2.1c1,0.3,2.1,0.3,3.1,0.2c2-0.3,3.6-1.1,4.9-1.5
							c1.3-0.5,2.4-0.9,3.2-1.2c0.8-0.3,1.2-0.5,1.2-0.5c0,0-0.4,0.1-1.2,0.3c-0.8,0.3-2,0.6-3.3,1.1c-1.4,0.4-3,1.1-4.9,1.4
							c-0.9,0.1-1.9,0.1-2.9-0.2c-1-0.3-1.9-0.9-2.3-1.9c-0.5-0.9-0.3-2.1,0.4-2.8c0.7-0.7,1.8-0.9,2.7-1.2c1.9-0.5,3.5-1.1,4.9-1.6
							c1.4-0.5,2.5-1,3.2-1.4C296.3,441.6,296.7,441.3,296.7,441.3z"/>
					</g>
				</g>
				<g>
					<g>
						<path class="st8" d="M292.1,443.4c0.1,0,0.2-0.9,0.4-2c0.2-1.1,0.6-1.9,0.5-1.9c-0.1-0.1-0.6,0.7-0.8,1.9
							C291.8,442.5,292,443.4,292.1,443.4z"/>
					</g>
				</g>
				<g>
					<g>
						<path class="st7" d="M257.9,444.4l8.6-3.5c0,0,23.7-11.7,24.1-11.1c0.4,0.6,1.7,0.5,1.5,3.4c-0.2,2.9-14.1,9.1-14.5,10.1
							c-0.4,1,0.4,6.1-4.7,9.9c-5.1,3.8-8.8,3.9-8.8,3.9"/>
					</g>
					<g>
						<g>
							<path class="st8" d="M264.2,457.2c0,0,0.1,0,0.2,0c0.1,0,0.3,0,0.6-0.1c0.5-0.1,1.3-0.3,2.2-0.6c0.9-0.3,2.1-0.8,3.3-1.5
								c1.2-0.7,2.6-1.6,3.9-2.8c1.3-1.2,2.4-3,2.8-5.1c0.3-1,0.3-2.1,0.4-3.2c0-0.1,0-0.3,0.1-0.4c0-0.1,0.1-0.1,0.2-0.2
								c0.2-0.2,0.5-0.3,0.7-0.5c0.5-0.3,1-0.6,1.5-0.9c2.1-1.2,4.2-2.3,6.4-3.6c1.1-0.7,2.2-1.4,3.3-2.2c0.5-0.4,1.1-0.8,1.5-1.3
								c0.2-0.2,0.5-0.5,0.6-0.8c0.1-0.2,0.2-0.3,0.2-0.5c0-0.2,0-0.4,0-0.5c0-0.7,0-1.4-0.4-2.1c-0.2-0.3-0.5-0.6-0.8-0.7
								c-0.1-0.1-0.3-0.2-0.3-0.3c0,0,0,0-0.1-0.1c-0.1-0.1-0.1,0-0.2,0c-0.1,0-0.1,0-0.2,0c-0.1,0-0.2,0-0.3,0.1
								c-1.3,0.4-2.5,1-3.6,1.5c-2.3,1-4.6,2.1-6.7,3.1c-4.3,2-8.1,3.9-11.3,5.5c-0.8,0.4-1.6,0.8-2.3,1.1c-0.7,0.3-1.4,0.6-2.1,0.9
								c-1.3,0.5-2.4,1-3.4,1.4c-0.9,0.4-1.6,0.7-2.1,0.9c-0.2,0.1-0.4,0.2-0.5,0.2c-0.1,0.1-0.2,0.1-0.2,0.1c0,0,0.1,0,0.2-0.1
								c0.1-0.1,0.3-0.1,0.6-0.2c0.5-0.2,1.2-0.5,2.1-0.8c0.9-0.4,2.1-0.8,3.4-1.3c0.7-0.3,1.4-0.5,2.1-0.8c0.7-0.3,1.5-0.7,2.3-1.1
								c3.2-1.5,7.1-3.4,11.3-5.4c2.1-1,4.4-2.1,6.7-3.1c1.2-0.5,2.4-1.1,3.6-1.5c0.1,0,0.2,0,0.2-0.1c0,0,0.1,0,0.1,0c0,0,0,0,0,0
								c0-0.1,0-0.1,0-0.1c0,0,0,0,0,0c-0.3,0.2-0.1,0.1-0.1,0.1l0,0c0.1,0.2,0.3,0.3,0.4,0.4c0.3,0.2,0.5,0.4,0.7,0.6
								c0.3,0.5,0.4,1.2,0.4,1.9c0,0.4,0,0.6-0.2,0.9c-0.2,0.3-0.4,0.5-0.6,0.8c-0.4,0.5-1,0.9-1.5,1.3c-1.1,0.8-2.2,1.5-3.2,2.2
								c-2.2,1.3-4.4,2.5-6.4,3.7c-0.5,0.3-1,0.6-1.5,0.9c-0.2,0.2-0.5,0.3-0.7,0.5c-0.1,0.1-0.3,0.2-0.3,0.4
								c-0.1,0.2-0.1,0.3-0.1,0.4c-0.1,1.1-0.2,2.2-0.4,3.2c-0.5,2-1.5,3.7-2.7,5c-1.2,1.2-2.6,2.1-3.8,2.8
								c-1.2,0.7-2.3,1.2-3.3,1.6c-0.9,0.3-1.7,0.5-2.2,0.7c-0.3,0.1-0.5,0.1-0.6,0.1C264.3,457.2,264.2,457.2,264.2,457.2z"/>
						</g>
					</g>
				</g>
				<g>
					<g>
						<path class="st8" d="M290.6,457.8c0,0-0.3,0-0.9,0.3c-0.6,0.2-1.4,0.7-2.2,1.4c-0.4,0.4-0.9,0.8-1.3,1.3
							c-0.4,0.5-0.8,1.2-0.7,2c0.1,0.8,0.8,1.5,1.6,1.7c0.8,0.3,1.7,0.1,2.5-0.1c3.2-1,6-2.3,7.9-3.4c1-0.5,1.7-1,2.2-1.4
							c0.5-0.4,0.8-0.6,0.7-0.6c0,0-0.3,0.1-0.8,0.5c-0.5,0.3-1.3,0.8-2.3,1.2c-1.9,1-4.7,2.2-7.9,3.2c-0.8,0.2-1.6,0.4-2.3,0.1
							c-0.7-0.2-1.3-0.7-1.4-1.4c-0.1-0.6,0.2-1.3,0.6-1.8c0.4-0.5,0.8-0.9,1.2-1.3C289.3,458.2,290.7,457.9,290.6,457.8z"/>
					</g>
				</g>
			</g>
		</g>
		<g>
			<g>
				<g>
					<path class="st6" d="M113.6,227.5c-2.2-0.5-3-3.9-1.3-5.3c-1.6-0.9-1.2-3.4,0.1-4.8c1.3-1.3,3.1-2.2,4.1-3.7
						c-2.1,0.5-4.4-1.2-4.5-3.3c-1.4,0.1-2.8-0.8-3.2-2.1c-0.4-1.3,0.1-2.9,1.2-3.6c-1.7-0.1-1.6-3-0.1-4c1.4-1,3.4-0.9,4.9-1.6
						c2.8-3.2,6.7-5.5,10.9-6.4c-2.4-1.8-4.7-3.5-7.1-5.3c-0.6-0.4-1.1-0.9-1.4-1.5c-0.6-1.4,0.5-3,1.7-4c2.5-2.1,5.6-3.5,8.8-3.8
						c1-0.1,2.4,0,2.7,1c2.2-1,4.7-0.9,7.2-0.8c1.4,0.1,2.9,0.2,3.8,1.2c-0.5-1.3-1.6-2.2-2.5-3.2c-0.9-1-1.8-2.2-1.6-3.6
						c0.1-1.4,1.8-2.5,2.9-1.8c-1.3-0.6-1.1-2.6,0-3.5s2.6-1,4-1c1,0,2.2,0.1,2.5,1.1c0.4-2.2,4.1-2.5,4.9-0.4
						c1.3-1.3,3.7-1.1,4.8,0.4c2.1-1.3,5.4-0.1,6.1,2.3c-1.3-2.1-2.5-4.2-3.8-6.3c-0.7-1.2-0.8-3.4,0.5-3.3c-2,0-3.1-2.7-2.1-4.4
						c1-1.7,3.2-2.4,5.2-2.1c0.6,0.8,1.1,1.7,1.7,2.5c1.3-0.9,3.2-0.9,4.6,0c1.3,1,1.9,2.8,1.4,4.3c0.8-0.9,2.3-0.4,3,0.6
						c0.6,1,0.6,2.2,0.6,3.4c1.9-1.6,5.5,0.3,5.2,2.8c1.7-0.9,3.7-1.3,5.7-1.2c-0.9-1.4-0.7-3.4,0.4-4.6s3.1-1.6,4.6-0.8
						c0.2-2.2,2.8-3.9,4.9-3.1c0.6-2.3,3.6-4,5.5-2.5c1.9,1.6,0.9,4.6-0.3,6.8c-1.3,2.4-2.5,4.7-3.8,7.1c4.1-2.2,8.2-4.4,12.3-6.6
						c0.4-0.2,0.8-0.4,1.2-0.4c0.6,0.1,1,0.6,1.5,0.9c0.7,0.4,1.6,0.2,2.4,0.4c2.2,0.7,2.1,4,0.6,5.7c-1.5,1.7-3.8,2.5-5.5,4.1
						c1.8,0.3,3.6,0.7,5.5,1c0.7-3,4.4-4.9,7.2-3.8c0.7-2,3.5-2.3,5.6-2.2c1.9,0.1,4,0.2,5.4,1.6c1.7,1.7,1.4,4.8-0.1,6.8
						s-3.8,3.1-6,4.2c0.4,1.6,2.5,2.1,4.2,1.9c1.7-0.2,3.4-0.9,5-0.3c2.1,0.8,3,3.6,5.2,4.3c0.6,0.2,1.4,0.3,2,0.7
						c0.8,0.5,1.1,1.6,1.3,2.5c0.3,1.2,0.5,2.4,0.8,3.6c0.1,0.6,0.3,1.2,0.1,1.8c-0.4,1.9-3.1,2.4-4.9,1.6c-1.8-0.7-3.4-2.2-5.3-2.5
						c2.6,1.3,5.3,2.7,6.7,5.2c1.4,2.5,0.8,6.4-1.9,7.3c-2.7,1-5.4-1.4-7.4-3.5c-2-2.1-4.9-4.4-7.5-3.2"/>
				</g>
				<g>
					<path class="st6" d="M117.6,225.8c-2.1-1.5-5.6,0.5-5.3,3.1c-2.5,0.7-4.6,2.9-5.2,5.5c-0.6,2.6,0.4,5.5,2.4,7.2
						c1.6,1.4,4.8,1.4,5.2-0.7c0.7,1.7,2.2,3.1,4,3.5c-1.8,2.6-0.6,6.6,2.2,7.8c-3.3,2.3-2.7,8.2,1,9.8c-1,2.2,0.1,5,2.3,6
						c2.2,1,5-0.1,6-2.3c0.7,1.7,1.5,3.5,3,4.5c1.5,1,4,0.8,4.8-0.8c0.8,3.6,5.6,5.7,8.8,3.7c-0.2,2,1.3,4,3.3,4.4
						c2,0.3,4.1-1,4.6-3c3.4,0.3,6.9,0.5,10.3,0.8c2.3,0.2,4.6,0.3,6.9,0.1c2.9-0.3,5.7-1.3,8.2-3c0.8-0.5,1.6-1.1,2.5-1.2
						c1.1-0.1,2.1,0.4,3.1,0.8c5.3,2.1,11.7,1.1,16.2-2.4c0.7-0.6,1.4-1.2,2.2-1.5c1-0.4,2-0.2,3.1-0.2c2.5,0.2,5.1,0,7.6-0.4
						c2.1-0.4,4.4-1.2,5.6-3c1.2-1.9,0.3-4.9-1.9-5.1c-0.1-1.4,0.4-2.9,1.5-3.8c1.1-0.9,2.9-0.9,3.8,0.2c0.9,1.1,0.2,3.1-1.2,3.2
						c2.2,1.8,6-0.1,6.3-3c0.3-2.8-2.3-5.4-5.1-5.7c0.7-2,1-4.1,0.7-6.2c1.3,2,4.2,2.6,6.2,1.2c1,1.9,2.7,3.6,4.8,4.1
						c2.1,0.5,4.6-0.4,5.5-2.4c0.8-2-0.7-4.7-2.9-4.7c1.7-2.3-0.2-6.2-3.1-6.2c0.7-2.7-0.8-5.8-3.3-7.1c1.6,1.2,4.2,0.4,4.9-1.4
						c1.1,2.2,4.4,2,6.6,0.9c1.7-0.8,3.5-2.1,3.2-4.6c-0.1-1.2-0.7-2.3-1.6-3.1c-2-1.9-4.9-2.3-7.6-2.6c-1.3-3.4-2.1-6.9-2.3-10.6
						c3,0.4,6.3-1.6,6.9-4.6l-14.9-9.3c0,0-34.6-5.3-35.8-5.3s-73.5,37.2-73.5,37.2c-1.7,1.7-4.9,1-6.2-1.1
						c-1.2-2.1-0.7-4.8,0.6-6.9c1.3-2,3.3-3.5,5.3-4.9c-2.3-0.2-4.8-0.4-6.5-2.1c-1.1-1-1.6-2.6-1-4c0.8-2,3.1-1.9,4.6-3
						c0.9-0.7,1.4-1.7,1.9-2.6"/>
				</g>
			</g>
			<g>
				<g>
					<g>
						<g>
							<g>
								<g>
									<path class="st7" d="M214.2,218c-0.9-12.4-9.2-27.5-21.5-26.1l-38.4,10c-3.7,0.4-6.5,3.6-6.4,7.4l4.2,82.9l-9.2,4.4
										c-0.1,0,9.6,5.4,9.5,5.4c0,0,8.9,26.1,34.3,18c5-1.6,7.3-7.1,8.3-12.8l0.3,0c0-0.7,8.4-7.1,8.4-7.7c0,0.6-8.3-4.7-8.3-4.7
										l0-2.2c0-7.5,0-10.6,0-10.5c0,0,15.8-2.7,18.9-23.4C215.8,248.5,215.2,231.7,214.2,218z"/>
								</g>
							</g>
						</g>
						<g>
							<g>
								<g>
									<g>
										<g>
											<g>
												<g>
													<g>
														<g>
															<g>
																<g>
																	<g>
																		<g>
																			<g>
																				<g>
																					<g>
																						<g>
																							<g>
																								<g>
																									<path class="st6" d="M209,232.9c0.1,1.4-1.1,2.6-2.5,2.7c-1.5,0.1-2.7-1-2.7-2.4c-0.1-1.4,1.1-2.6,2.5-2.7
																										C207.7,230.4,209,231.5,209,232.9z"/>
																								</g>
																							</g>
																						</g>
																					</g>
																				</g>
																			</g>
																		</g>
																	</g>
																</g>
															</g>
															<g>
																<g>
																	<g>
																		<g>
																			<g>
																				<g>
																					<g>
																						<g>
																							<g>
																								<g>
																									<g>
																										<path class="st6" d="M210.6,226.7c-0.3,0.3-2.3-1.1-5.2-1.1c-2.8,0-4.9,1.5-5.2,1.1
																											c-0.2-0.2,0.2-0.8,1.1-1.4c0.9-0.7,2.4-1.3,4.2-1.3c1.8,0,3.3,0.6,4.1,1.3
																											C210.5,226,210.8,226.6,210.6,226.7z"/>
																									</g>
																								</g>
																							</g>
																						</g>
																					</g>
																				</g>
																			</g>
																		</g>
																	</g>
																</g>
															</g>
														</g>
														<g>
															<g>
																<g>
																	<g>
																		<g>
																			<g>
																				<g>
																					<g>
																						<g>
																							<g>
																								<g>
																									<path class="st6" d="M181.9,233c0.1,1.4-1.1,2.6-2.5,2.7c-1.5,0.1-2.7-1-2.7-2.4c-0.1-1.4,1.1-2.6,2.5-2.7
																										C180.6,230.5,181.8,231.6,181.9,233z"/>
																								</g>
																							</g>
																						</g>
																					</g>
																				</g>
																			</g>
																		</g>
																	</g>
																</g>
															</g>
															<g>
																<g>
																	<g>
																		<g>
																			<g>
																				<g>
																					<g>
																						<g>
																							<g>
																								<g>
																									<g>
																										<path class="st6" d="M182.7,227.5c-0.3,0.3-2.3-1.1-5.2-1.1c-2.8,0-4.9,1.5-5.2,1.1
																											c-0.2-0.2,0.2-0.8,1.1-1.4c0.9-0.7,2.4-1.3,4.2-1.3c1.8,0,3.3,0.6,4.1,1.3
																											C182.5,226.7,182.8,227.3,182.7,227.5z"/>
																									</g>
																								</g>
																							</g>
																						</g>
																					</g>
																				</g>
																			</g>
																		</g>
																	</g>
																</g>
															</g>
														</g>
														<g>
															<g>
																<g>
																	<g>
																		<g>
																			<g>
																				<g>
																					<g>
																						<g>
																							<g>
																								<g>
																									<path class="st6" d="M193.1,248.5c0-0.2,1.8-0.5,4.6-0.9c0.7-0.1,1.4-0.2,1.5-0.7c0.2-0.5-0.1-1.3-0.5-2.1
																										c-0.7-1.8-1.4-3.6-2.2-5.5c-3-7.8-5.2-14.3-4.9-14.4c0.3-0.1,3,6.1,6.1,14c0.7,1.9,1.4,3.8,2.1,5.5
																										c0.3,0.8,0.8,1.8,0.4,2.8c-0.2,0.5-0.7,0.9-1.2,1.1c-0.5,0.1-0.9,0.2-1.2,0.2
																										C194.9,248.6,193.2,248.6,193.1,248.5z"/>
																								</g>
																							</g>
																						</g>
																					</g>
																				</g>
																			</g>
																		</g>
																	</g>
																</g>
															</g>
														</g>
														<g>
															<g>
																<g>
																	<g>
																		<g>
																			<g>
																				<g>
																					<g>
																						<g>
																							<g>
																								<path class="st8" d="M195.3,282.1c0,0-13.9,1-27.6-7.2c0,0,6.8,14.1,27.4,12L195.3,282.1z"/>
																							</g>
																						</g>
																					</g>
																				</g>
																			</g>
																		</g>
																	</g>
																</g>
															</g>
														</g>
														<g>
															<g>
																<g>
																	<g>
																		<g>
																			<g>
																				<g>
																					<g>
																						<g>
																							<g>
																								<path class="st8" d="M193.5,254.9c-1.4-2-3.7-3.2-5.9-3.1c-1.5,0.1-3,0.8-3.8,2.1c-0.8,1.3-0.8,3.3,0.1,4.7
																									c1.1,1.6,3.1,2.1,4.7,1.7c1.6-0.4,3-1.5,4.2-2.7c0.3-0.3,0.7-0.6,0.9-1.1c0.2-0.5,0.2-1.1-0.1-1.5"/>
																							</g>
																						</g>
																					</g>
																				</g>
																			</g>
																		</g>
																	</g>
																</g>
															</g>
														</g>
														<g>
															<g>
																<g>
																	<g>
																		<g>
																			<g>
																				<g>
																					<g>
																						<g>
																							<g>
																								<g>
																									<path class="st6" d="M184.8,250.5c0.5,0,0.5,3.1,3.1,5.2c2.7,2.2,5.9,1.8,6,2.2c0,0.2-0.7,0.6-2.1,0.7
																										c-1.4,0.1-3.4-0.4-5-1.7c-1.6-1.3-2.3-3.1-2.4-4.4C184.2,251.2,184.6,250.5,184.8,250.5z"/>
																								</g>
																							</g>
																						</g>
																					</g>
																				</g>
																			</g>
																		</g>
																	</g>
																</g>
															</g>
														</g>
													</g>
												</g>
											</g>
											<g>
												<g>
													<g>
														<g>
															<g>
																<g>
																	<g>
																		<g>
																			<g>
																				<g>
																					<path class="st6" d="M183.9,220.9c-0.3,0.8-3.1,0.4-6.4,0.9c-3.3,0.4-6,1.4-6.5,0.7c-0.2-0.3,0.3-1.1,1.3-1.8
																						c1.1-0.8,2.8-1.5,4.8-1.7c2-0.2,3.8,0.1,5.1,0.6C183.4,219.9,184,220.5,183.9,220.9z"/>
																				</g>
																			</g>
																		</g>
																	</g>
																</g>
															</g>
														</g>
													</g>
												</g>
											</g>
											<g>
												<g>
													<g>
														<g>
															<g>
																<g>
																	<g>
																		<g>
																			<g>
																				<g>
																					<path class="st6" d="M209.5,218.5c-0.5,0.6-2.5,0-4.8,0c-2.4-0.1-4.3,0.5-4.8-0.2c-0.2-0.3,0.1-1,1-1.6
																						c0.9-0.6,2.3-1.1,3.9-1.1c1.6,0,3,0.6,3.8,1.3C209.5,217.5,209.7,218.2,209.5,218.5z"/>
																				</g>
																			</g>
																		</g>
																	</g>
																</g>
															</g>
														</g>
													</g>
												</g>
											</g>
										</g>
									</g>
								</g>
							</g>
						</g>
					</g>
				</g>
			</g>
			<g>
				<path class="st6" d="M147.8,230.4c-0.6,1.3-0.1,3.2,1,3.9c1.1,0.8,2.7,0.3,3.4-0.9c0.9,1.2,3,0,2.7-1.6c1.1,0.6,2.6-0.9,2.2-2.3
					c1.3,0.5,2.1-1.6,2.7-3c0.4-0.8,0.9-1.4,1.3-2.1c1.4-2.2,2.2-5,2.1-7.8c1.7-1.9,2.1-4.9,2.5-7.6c0.2-1.7,0.4-3.4,0.6-5.1
					c0.3-0.4,0.6-0.8,1-1.2c-0.1,1.2,0.8,2.3,1.8,2.7c1,0.4,2.1,0.2,3.1,0c1-0.2,2-0.4,3.1-0.6c0.6,0.2,1.3,0.4,1.9,0.6
					c-0.6,1.6,0,3.4,0.5,5c0.4,1.1,0.8,2.3,1.8,2.8c0.9,0.5,2.3-0.4,2-1.5c0.7,0.8,1.9,0.5,2.5-0.4c0.6-0.9,0.7-2,0.7-3.2
					c-0.1-2.7-0.9-5.4-2.4-7.4c1.8,1.7,3.5,3.3,5.3,5c0.4,0.4,0.8,0.7,1.3,0.8c-0.1,0.9,0.7,1.7,1.5,1.6c0.8-0.1,1.4-0.7,2-1.3
					c1.3-1.4,2.7-3.7,1.5-5.2c0.6-0.1,0.9-1.1,0.5-1.7c2,1.5,4,3.1,6,4.6c-0.6-0.4-1.3,0.6-1.1,1.4c0.1,0.8,0.7,1.3,1.3,1.8
					c-0.5,0.8-0.8,1.8-0.7,2.9c-1.1-1-2.7,0.8-2.4,2.4c0.3,1.6,1.8,2.4,3.2,2.5c1.1,0.1,2.5-0.4,2.7-1.8c1.3,0.3,2.6-1.5,2.1-3
					c1,0.6,1.8-1.1,1.9-2.4c0.1-2.4-0.2-4.8-1-7c0,0.3,0.3,0.6,0.6,0.4c0.2-0.2,0.2-0.7-0.1-0.8c1.1,2.8,2.3,5.6,3.4,8.3
					c0.9,2.2,1.8,4.5,1.8,6.9c0,1,0.1,2.4,1,2.4c0.2,0,0.4-0.1,0.7-0.2c2.4-1.2,4.3-3.6,5.5-6.3c0.4-0.9,0.8-1.9,0.8-2.9
					c0.2-2.1-0.7-4.2-0.8-6.3c-0.1-0.9,0-1.9-0.2-2.8c-0.3-1.5-1.3-2.6-2.2-3.7c-3.2-3.8-6.7-7.7-11-9.2c-2.7-0.9-5.5-0.9-8.2-1.8
					c-1.7-0.6-3.2-1.5-4.8-2.2c-6.6-3.1-13.9-3.5-20.9-2.9c-3.9,0.3-7.9,1-11.6,2.7c-4,1.9-7.6,5-10.9,8.3
					c-5,4.9-9.7,10.5-12.8,17.2c-2.4,5.2-3.9,11.2-3.1,17c0.8,5.8,4.4,11.3,9.3,12.5c0.6-0.7,1.3-1.5,1.9-2.2"/>
			</g>
			<g>
				<g>
					<g>
						<g>
							<g>
								<g>
									<g>
										<g>
											<g>
												<g>
													<g>
														<path class="st7" d="M153.5,234.3c-0.3-0.1-11.5-3.7-11.4,7.8c0.1,11.5,11.6,9,11.6,8.7
															C153.8,250.5,153.5,234.3,153.5,234.3z"/>
													</g>
												</g>
											</g>
										</g>
									</g>
								</g>
							</g>
						</g>
					</g>
				</g>
				<g>
					<g>
						<g>
							<g>
								<g>
									<g>
										<g>
											<g>
												<g>
													<g>
														<g>
															<path class="st8" d="M150.2,246.5c-0.1,0-0.2,0.1-0.5,0.3c-0.3,0.2-0.9,0.3-1.5,0c-1.2-0.4-2.3-2.4-2.3-4.4
																c0-1,0.2-2,0.5-2.9c0.3-0.8,0.9-1.4,1.5-1.6c0.6-0.1,1,0.2,1.2,0.5c0.2,0.3,0.1,0.6,0.1,0.6c0,0,0.2-0.2,0.1-0.7
																c0-0.2-0.2-0.5-0.5-0.7c-0.3-0.2-0.7-0.3-1.1-0.3c-0.9,0.1-1.7,0.9-2.1,1.8c-0.4,0.9-0.7,2-0.7,3.2
																c0.1,2.3,1.3,4.5,3,4.9c0.8,0.2,1.5,0,1.8-0.3C150.2,246.8,150.2,246.6,150.2,246.5z"/>
														</g>
													</g>
												</g>
											</g>
										</g>
									</g>
								</g>
							</g>
						</g>
					</g>
				</g>
			</g>
			<g>
				<g>
					<g>
						<path class="st5" d="M191.1,230.8c-0.1,0,0-1.2-0.5-3.3c-0.5-2-1.9-5.1-5-7.4c-1.5-1.1-3.4-2.1-5.7-2.5
							c-2.2-0.4-4.7-0.3-7,0.6c-1.2,0.4-2.3,1-3.4,1.8c-1.1,0.8-2,1.7-2.8,2.8c-1.6,2.2-2.6,5-2.6,7.9c0,2.9,1,5.7,2.6,7.9
							c0.8,1.1,1.8,2.1,2.8,2.8c1.1,0.8,2.2,1.4,3.4,1.8c2.4,0.9,4.8,1,7,0.6c2.2-0.4,4.1-1.4,5.7-2.5c3.1-2.3,4.4-5.3,5-7.4
							C191.1,232,191,230.8,191.1,230.8c0,0,0,0.3,0,0.9c0,0.3,0,0.6-0.1,1.1c-0.1,0.4-0.1,0.9-0.3,1.4c-0.5,2.1-1.8,5.2-4.9,7.6
							c-1.6,1.2-3.5,2.2-5.8,2.6c-2.3,0.4-4.8,0.3-7.3-0.6c-1.2-0.4-2.4-1.1-3.5-1.9c-1.1-0.8-2.1-1.8-2.9-2.9
							c-1.7-2.3-2.7-5.2-2.7-8.2c0-3,1-5.9,2.7-8.2c0.8-1.2,1.8-2.1,2.9-2.9c1.1-0.8,2.3-1.5,3.5-1.9c2.4-0.9,5-1,7.3-0.6
							c2.3,0.4,4.3,1.4,5.8,2.6c3.1,2.4,4.5,5.5,4.9,7.6c0.1,0.5,0.2,1,0.3,1.4c0.1,0.4,0.1,0.8,0.1,1.1
							C191.1,230.5,191.1,230.8,191.1,230.8z"/>
					</g>
				</g>
				<g>
					<g>
						<path class="st5" d="M223.5,230.8c-0.1,0,0-1.2-0.5-3.3c-0.5-2-1.9-5.1-5-7.4c-1.5-1.1-3.4-2.1-5.7-2.5
							c-2.2-0.4-4.7-0.3-7,0.6c-1.2,0.4-2.3,1-3.4,1.8c-1.1,0.8-2,1.7-2.8,2.8c-1.6,2.2-2.6,5-2.6,7.9c0,2.9,1,5.7,2.6,7.9
							c0.8,1.1,1.8,2.1,2.8,2.8c1.1,0.8,2.2,1.4,3.4,1.8c2.4,0.9,4.8,1,7,0.6c2.2-0.4,4.1-1.4,5.7-2.5c3.1-2.3,4.4-5.3,5-7.4
							C223.5,232,223.4,230.8,223.5,230.8c0,0,0,0.3,0,0.9c0,0.3,0,0.6-0.1,1.1c-0.1,0.4-0.1,0.9-0.3,1.4c-0.5,2.1-1.8,5.2-4.9,7.6
							c-1.6,1.2-3.5,2.2-5.8,2.6c-2.3,0.4-4.8,0.3-7.3-0.6c-1.2-0.4-2.4-1.1-3.5-1.9c-1.1-0.8-2.1-1.8-2.9-2.9
							c-1.7-2.3-2.7-5.2-2.7-8.2c0-3,1-5.9,2.7-8.2c0.8-1.2,1.8-2.1,2.9-2.9c1.1-0.8,2.3-1.5,3.5-1.9c2.4-0.9,5-1,7.3-0.6
							c2.3,0.4,4.3,1.4,5.8,2.6c3.1,2.4,4.5,5.5,4.9,7.6c0.1,0.5,0.2,1,0.3,1.4c0.1,0.4,0.1,0.8,0.1,1.1
							C223.5,230.5,223.5,230.8,223.5,230.8z"/>
					</g>
				</g>
				<g>
					<g>
						<path class="st5" d="M196.9,227.6c-0.1,0.1-1.4-0.4-3.1-0.4c-1.7-0.1-3.1,0.4-3.1,0.2c-0.1-0.1,1.3-0.8,3.1-0.7
							C195.6,226.7,196.9,227.5,196.9,227.6z"/>
					</g>
				</g>
				<g>
					<g>
						<path class="st5" d="M163.7,232.2c0,0.1-2.5,0.9-5.7,1.5c-3.2,0.5-5.9,0.6-5.9,0.4c0-0.2,2.6-0.4,5.8-0.9
							C161.1,232.6,163.7,232,163.7,232.2z"/>
					</g>
				</g>
				<g>
					<g>
						<path class="st9" d="M189.6,228.7c0.1,0,0.1,1-0.1,2.6c-0.3,1.6-0.9,3.7-2.3,5.8c-1.3,2.1-2.9,3.6-4.3,4.5
							c-1.4,0.8-2.5,0.6-2.5,0.6c0-0.1,1,0,2.3-0.9c1.3-0.8,2.8-2.4,4.1-4.4c1.3-2,2-4.1,2.3-5.6
							C189.5,229.7,189.6,228.7,189.6,228.7z"/>
					</g>
				</g>
				<g>
					<g>
						<path class="st9" d="M219.3,237.4c-0.1,0,0.4-0.8,1.1-2.1c0.3-0.7,0.7-1.5,0.9-2.4c0.2-0.9,0.2-2,0.1-3.1
							c-0.3-2.2-0.9-4.2-1.6-5.5c-0.7-1.3-1.4-1.9-1.3-2c0,0,0.2,0.1,0.5,0.4c0.3,0.3,0.7,0.8,1.1,1.4c0.8,1.3,1.5,3.3,1.8,5.6
							c0.2,1.1,0.2,2.3-0.1,3.3c-0.3,1-0.7,1.8-1,2.5C220,236.8,219.4,237.5,219.3,237.4z"/>
					</g>
				</g>
			</g>
			<g>
				<g>
					<path class="st5" d="M145.4,250.5c0,0-0.3,0.1-0.8,0.5c-0.5,0.3-1,1-1.3,1.9c-0.3,0.9-0.2,2.2,0.7,3.2c0.9,1,2.4,1.5,3.8,1.1
						c1.4-0.4,2.4-1.7,2.7-3c0.3-1.3-0.1-2.5-0.6-3.3c-0.6-0.8-1.3-1.3-1.7-1.6c-0.5-0.3-0.8-0.4-0.8-0.4c0,0,0.3,0,0.9,0.2
						c0.5,0.2,1.3,0.7,2,1.6c0.6,0.8,1.1,2.2,0.8,3.6c-0.3,1.4-1.4,2.9-3,3.4c-1.7,0.5-3.4-0.2-4.3-1.3c-0.5-0.5-0.8-1.2-0.9-1.9
						c-0.1-0.6,0-1.3,0.2-1.8c0.4-1,1-1.7,1.6-2C145,250.5,145.4,250.4,145.4,250.5z"/>
				</g>
			</g>
			<g>
				<g>
					<path class="st5" d="M193.1,197.9c-0.1,0,0.6-0.4,0.8-1.5c0.1-0.5,0-1.2-0.5-1.7c-0.5-0.5-1.4-0.8-2.2-0.6l-0.5,0.2l0.2-0.5
						c0.3-0.8,0.2-1.9-0.6-2.5c-0.7-0.6-2.1-0.6-2.9,0.1L187,191c0.1-0.1,0.1-0.2,0.2-0.3c0.1-0.3,0-0.8-0.2-1.1
						c-0.2-0.3-0.6-0.5-0.9-0.6c-0.4-0.1-0.8-0.1-1.2,0.1c-0.4,0.1-0.8,0.3-1.3,0.3c-0.6-0.1-0.8-0.5-1.1-0.7
						c-0.3-0.2-0.6-0.4-0.9-0.6c-0.6-0.3-1.3-0.4-1.8-0.4c-1.2,0-2.1,0.3-2.7,0.6c-0.6,0.3-0.8,0.6-0.9,0.6c0,0,0.2-0.3,0.8-0.7
						c0.6-0.4,1.5-0.8,2.8-0.8c0.6,0,1.3,0.1,2,0.4c0.3,0.2,0.7,0.3,1,0.6c0.3,0.2,0.6,0.6,0.9,0.6c0.3,0,0.6-0.2,1.1-0.3
						c0.4-0.1,0.9-0.2,1.4-0.1c0.5,0.1,1,0.4,1.3,0.8c0.3,0.4,0.4,1,0.2,1.5c-0.1,0.2-0.1,0.3-0.3,0.5l-0.4-0.4
						c1-0.9,2.6-0.9,3.5-0.1c0.9,0.8,1.1,2.2,0.7,3.1l-0.3-0.3c1-0.3,2.1,0.1,2.6,0.7c0.6,0.6,0.6,1.5,0.5,2c-0.1,0.6-0.4,1-0.6,1.2
						C193.2,197.8,193.1,197.9,193.1,197.9z"/>
				</g>
			</g>
			<g>
				<g>
					<path class="st5" d="M205.9,201.2c-0.1,0,0.6-0.4,1-1.4c0.2-0.5,0.2-1.2-0.1-1.9c-0.3-0.7-1.1-1.3-2-1.5l-0.4,0l0.3-0.3
						c0.6-0.7,1.1-1.8,0.9-2.8c-0.1-0.5-0.5-0.9-1-1.2c-0.5-0.2-1.2-0.2-1.5,0.2l-1.5,1.6l1.1-1.9c0.4-0.6,0.4-1.5,0.1-2.2
						c-0.3-0.8-1-1.3-1.8-1.5c-0.6-0.1-1.2-0.1-1.7,0.2l-0.6,0.3l0.2-0.6c0.4-0.9-0.5-1.9-1.4-2c-1-0.2-1.9,0.2-2.7,0.7l-0.5,0.3
						l0.2-0.5c0.2-0.7-0.1-1.4-0.6-1.8c-0.5-0.5-1.1-0.7-1.8-0.8c-1.3-0.2-2.4-0.1-3.3,0.1c-1.8,0.4-2.7,1.1-2.8,1
						c0,0,0.2-0.2,0.6-0.4c0.4-0.3,1.1-0.6,2.1-0.8c0.9-0.2,2.1-0.4,3.4-0.2c0.7,0.1,1.4,0.3,2,0.8c0.6,0.5,1,1.4,0.8,2.3l-0.3-0.3
						c0.8-0.5,1.9-0.9,3-0.8c0.6,0.1,1.1,0.4,1.5,0.9c0.4,0.5,0.6,1.2,0.3,1.8l-0.4-0.3c0.6-0.3,1.4-0.4,2.1-0.2
						c1,0.2,1.8,0.9,2.1,1.8c0.3,0.9,0.3,1.9-0.2,2.7l-0.4-0.3c0.6-0.6,1.5-0.6,2.1-0.3c0.6,0.3,1.1,0.8,1.3,1.5
						c0.3,1.3-0.3,2.4-1,3.2l-0.1-0.3c1.1,0.2,1.9,0.9,2.3,1.7c0.4,0.8,0.3,1.6,0,2.2c-0.2,0.6-0.5,0.9-0.8,1.1
						C206.1,201.1,205.9,201.2,205.9,201.2z"/>
				</g>
			</g>
			<g>
				<g>
					<path class="st5" d="M233.6,203.6c-0.1,0,0.1-0.7-0.7-1.4c-0.4-0.3-1-0.6-1.7-0.6c-0.7,0-1.6,0.3-2.5,0.6l-0.3,0.1l0-0.3
						c0.1-0.9-0.7-1.9-1.8-2.2c-1.1-0.3-2.4,0.1-3.7,0.6l-1.6,0.6l1.4-1c0.8-0.6,0.6-1.9-0.1-2.6c-0.8-0.7-2-0.9-3.2-0.8l-0.2,0
						l-1,0.1l0.8-0.6c1-0.7,0.8-2.5-0.2-3.1c-1-0.7-2.4-0.4-3.3,0.3l-1.1,0.8l0.7-1.1c0.9-1.5,0.7-3.3,0-4.5c-0.7-1.3-2-1.8-3-1.9
						c-1.1-0.1-1.9,0.1-2.4,0.3c-0.5,0.2-0.8,0.4-0.8,0.4c0,0,0-0.1,0.2-0.2c0.1-0.1,0.3-0.2,0.6-0.4c0.5-0.3,1.4-0.6,2.5-0.5
						c1.1,0.1,2.5,0.7,3.4,2c0.8,1.3,1.1,3.3,0.1,5l-0.4-0.3c1-0.8,2.6-1.2,3.9-0.4c0.6,0.4,1,1.1,1.1,1.9c0.1,0.7-0.2,1.6-0.9,2.1
						l-0.2-0.5l0.2,0c1.2-0.1,2.6,0,3.6,0.9c0.5,0.5,0.7,1.1,0.8,1.7c0.1,0.6-0.2,1.3-0.7,1.7l-0.2-0.4c1.3-0.5,2.6-0.9,3.9-0.6
						c1.2,0.3,2.2,1.5,2.1,2.6l-0.2-0.2c0.9-0.3,1.8-0.6,2.6-0.5c0.8,0,1.5,0.4,1.8,0.8c0.4,0.4,0.5,0.8,0.6,1.1
						C233.6,203.4,233.6,203.6,233.6,203.6z"/>
				</g>
			</g>
			<g>
				<g>
					<path class="st5" d="M219.1,177.2c0,0-0.2,0.1-0.7,0.2c-0.5,0.1-1.2,0.1-2,0.1c-0.8,0-1.9-0.1-2.9,0.4c-0.5,0.3-0.9,0.7-1,1.3
						c-0.1,0.6,0,1.3,0.5,1.5l-0.4,0.3c-0.1-0.7-0.9-1.1-1.7-1.5c-0.8-0.4-1.6-0.9-2.4-1c-0.9-0.2-1.8-0.1-2.5,0.4
						c-0.7,0.4-1.2,1.2-1.1,1.9l0.1,0.6l-0.5-0.4c-1-0.9-2.3-1.3-3.4-1.4c-1.1-0.1-2.1,0.1-2.9,0.4c-1.6,0.6-2.2,1.5-2.2,1.4
						c0,0,0.1-0.2,0.4-0.6c0.3-0.3,0.9-0.8,1.7-1.1c0.8-0.4,1.8-0.6,3-0.6c1.2,0,2.6,0.5,3.7,1.4l-0.4,0.2c-0.1-1,0.5-1.9,1.3-2.4
						c0.8-0.6,1.9-0.7,2.9-0.5c1,0.2,1.8,0.7,2.6,1.1c0.4,0.2,0.8,0.4,1.1,0.7c0.4,0.3,0.7,0.7,0.8,1.2l0.1,0.5l-0.4-0.2
						c-0.8-0.4-0.9-1.4-0.7-2.1c0.2-0.7,0.7-1.3,1.3-1.5c1.2-0.5,2.3-0.4,3.1-0.4c0.9,0.1,1.5,0.1,2,0
						C218.8,177.3,219.1,177.2,219.1,177.2z"/>
				</g>
			</g>
			<g>
				<g>
					<path class="st5" d="M193.4,167.3c0,0.1-0.5-0.1-1.4,0.2c-0.4,0.1-0.9,0.4-1.3,0.8c-0.4,0.4-0.8,1-0.8,1.7l0,0.3l-0.3-0.1
						c-0.7-0.2-1.5,0.3-1.9,1.1c-0.4,0.8-0.3,1.8-0.1,2.9l0.2,1l-0.6-0.8c0,0-0.1-0.1-0.1-0.1c-0.4-0.5-1.1-0.8-1.8-0.7
						c-0.7,0-1.3,0.3-1.7,0.7c-0.9,0.9-1.1,2.1-1,3.1c0.1,1,0.4,1.7,0.6,2.2c0.2,0.5,0.4,0.8,0.3,0.8c0,0-0.2-0.2-0.5-0.7
						c-0.3-0.5-0.6-1.3-0.8-2.3c-0.1-1,0.1-2.4,1.1-3.4c0.9-1.1,3-1.4,4.2,0c0,0.1,0.1,0.1,0.1,0.2l-0.5,0.2c-0.2-1-0.3-2.2,0.2-3.1
						c0.5-0.9,1.5-1.6,2.5-1.3l-0.3,0.2c0.1-0.8,0.5-1.5,1-2c0.5-0.5,1-0.7,1.5-0.8c0.5-0.1,0.8-0.1,1.1-0.1
						C193.3,167.2,193.4,167.2,193.4,167.3z"/>
				</g>
			</g>
			<g>
				<g>
					<path class="st5" d="M170.7,183c0,0-0.3,0-0.7-0.2c-0.4-0.2-1-0.5-1.6-1.1c-0.5-0.6-1.1-1.5-1.2-2.6c-0.1-0.5,0-1.1-0.3-1.4
						c-0.3-0.4-0.9-0.6-1.3-1.2c-0.8-1.2-0.4-2.8,0.7-3.5l0,0.4c-1.2-1-1.9-2.2-2.2-3.1c-0.3-0.9-0.4-1.4-0.4-1.4
						c0.1,0,0.2,0.5,0.6,1.3c0.4,0.8,1.1,1.9,2.3,2.8l0.2,0.2l-0.3,0.2c-0.8,0.5-1.1,1.9-0.5,2.8c0.3,0.4,0.8,0.6,1.3,1.2
						c0.5,0.6,0.4,1.2,0.4,1.7c0.1,1,0.5,1.8,1,2.4C169.7,182.7,170.8,182.9,170.7,183z"/>
				</g>
			</g>
			<g>
				<g>
					<path class="st5" d="M164.1,187.6c0,0-0.1,0-0.4,0.1c-0.3,0-0.7,0-1.2-0.1c-1-0.2-2.6-0.8-3.8-2.2l0.3,0
						c-0.7,0.9-1.8,1.5-3,1.6c-0.6,0.1-1.3,0-1.9-0.2c-0.6-0.2-1.3-0.6-1.7-1.3c-0.1-0.3-0.1-0.6-0.2-0.7c-0.1-0.2-0.2-0.4-0.3-0.5
						c-0.3-0.3-0.8-0.4-1.2-0.5c-0.4-0.1-0.9-0.3-1.3-0.5c-0.4-0.3-0.8-0.7-0.7-1.3l0.3,0.2c-1.1,0.4-2.3,0.4-3.2,0.1
						c-0.9-0.3-1.6-0.8-2.1-1.3c-0.5-0.5-0.7-1-0.9-1.3c-0.1-0.3-0.1-0.5-0.1-0.5c0.1,0,0.2,0.8,1.2,1.7c0.5,0.4,1.1,0.9,2,1.1
						c0.8,0.3,1.9,0.3,2.9-0.1l0.3-0.1l0,0.4c0,0.3,0.2,0.6,0.5,0.8c0.3,0.2,0.7,0.4,1.2,0.5c0.5,0.1,1,0.3,1.4,0.6
						c0.2,0.2,0.4,0.4,0.5,0.7c0.1,0.3,0.1,0.5,0.2,0.7c0.2,0.5,0.8,0.8,1.3,1c0.6,0.2,1.2,0.3,1.7,0.2c1.1-0.1,2.1-0.6,2.8-1.4
						l0.2-0.2l0.2,0.2c1.1,1.3,2.6,2,3.6,2.2C163.5,187.5,164.1,187.5,164.1,187.6z"/>
				</g>
			</g>
			<g>
				<g>
					<path class="st5" d="M123.1,203.5c0,0,0-0.1-0.1-0.2c0-0.1-0.1-0.3-0.1-0.5c0-0.5,0-1.2,0.2-2.1c0.2-0.9,0.7-1.9,1.4-2.9
						c0.3-0.5,0.7-1.1,1.2-1.6c0.2-0.3,0.5-0.5,0.9-0.7c0.4-0.2,0.9-0.2,1.3,0l-0.3,0.2c-0.1-1.2,0.5-2.5,1.6-3.3
						c1.2-0.7,2.8-0.7,4,0.3l-0.4,0.2c0-0.8,0.4-1.5,1-1.9c0.6-0.5,1.5-0.6,2.2-0.3c0.4,0.2,0.8,0.4,1,0.8l-0.5,0.2
						c0-0.5,0.2-0.9,0.5-1.2c0.3-0.3,0.7-0.5,1.2-0.5c0.8-0.1,1.6,0.3,2.2,0.6l-0.3,0.1c0.5-0.8,1.4-1.3,2.2-1.6
						c0.9-0.2,1.8-0.2,2.5,0c1.6,0.4,2.8,1.3,3.9,1.9l-0.3,0.2c-0.1-0.3-0.1-0.7,0.1-0.9c0.2-0.2,0.4-0.4,0.6-0.5
						c0.5-0.2,0.9-0.3,1.4-0.2c0.8,0.1,1.5,0.4,2.1,0.6c0.5,0.3,0.9,0.5,1.2,0.7c0.2,0.2,0.4,0.3,0.4,0.3c0,0-0.5-0.4-1.6-0.8
						c-0.5-0.2-1.2-0.4-2-0.5c-0.4,0-0.8,0-1.2,0.2c-0.4,0.2-0.7,0.5-0.5,0.9l0.3,0.6l-0.6-0.3c-1.1-0.7-2.3-1.5-3.8-1.8
						c-0.7-0.2-1.5-0.2-2.3,0c-0.8,0.2-1.5,0.7-1.9,1.4l-0.1,0.2l-0.2-0.1c-0.6-0.3-1.3-0.6-2-0.5c-0.6,0-1.3,0.6-1.2,1.2l0.1,0.9
						l-0.5-0.7c-0.2-0.3-0.5-0.5-0.8-0.6c-0.6-0.2-1.2-0.2-1.7,0.2c-0.5,0.4-0.8,0.9-0.8,1.5l0,0.6l-0.4-0.4c-1-0.8-2.4-0.9-3.4-0.3
						c-1,0.6-1.5,1.8-1.4,2.8l0,0.4l-0.4-0.2c-0.6-0.3-1.2,0.1-1.7,0.6c-0.5,0.5-0.8,1.1-1.1,1.6c-0.7,1-1.2,2-1.5,2.8
						C122.9,202.5,123.2,203.5,123.1,203.5z"/>
				</g>
			</g>
			<g>
				<g>
					<path class="st5" d="M126,218.7c0,0-0.1-0.1-0.3-0.3c-0.2-0.2-0.4-0.6-0.6-1c-0.2-0.5-0.5-1.1-0.4-1.9c0-0.4,0.2-0.8,0.4-1.2
						c0.2-0.4,0.6-0.7,1.1-0.9l-0.1,0.3c-0.5-0.7-0.6-1.7-0.1-2.6c0.5-0.9,1.6-1.4,2.7-1.1l-0.2,0.4c-0.5-0.7-0.4-1.6,0.1-2.3
						c0.5-0.7,1.4-1,2.2-1c0.4,0,0.8,0.1,1.2,0c0.3,0,0.5-0.3,0.7-0.6c0.2-0.3,0.3-0.8,0.7-1.1c0.3-0.4,0.8-0.6,1.2-0.7
						c1-0.2,1.9-0.1,2.8-0.1c0.9,0,1.7-0.1,2.2-0.6c0.3-0.3,0.4-0.6,0.7-1c0.3-0.4,0.7-0.6,1-0.8c0.8-0.3,1.7-0.3,2.4,0.1l-0.3,0.3
						c-0.5-0.8-0.2-1.8,0.3-2.4c0.5-0.6,1.3-0.9,1.9-1c1.4-0.1,2.5,0.2,3.4,0.4c0.9,0.3,1.6,0.6,2,0.8c0.4,0.2,0.7,0.4,0.7,0.4
						c0,0.1-1-0.5-2.8-1c-0.9-0.2-2-0.5-3.3-0.3c-0.6,0.1-1.3,0.3-1.7,0.9c-0.4,0.5-0.6,1.3-0.2,1.9l0.6,0.8l-0.9-0.5
						c-0.6-0.3-1.3-0.4-2-0.1c-0.3,0.1-0.6,0.4-0.8,0.7c-0.2,0.3-0.4,0.7-0.7,1c-0.3,0.3-0.8,0.6-1.2,0.7c-0.5,0.1-0.9,0.1-1.4,0.1
						c-0.9,0-1.8-0.1-2.6,0.1c-0.4,0.1-0.7,0.3-1,0.5c-0.3,0.2-0.4,0.6-0.6,1c-0.2,0.4-0.6,0.8-1.1,0.9c-0.5,0.1-0.9,0-1.2,0
						c-0.7,0-1.4,0.3-1.8,0.8c-0.4,0.5-0.5,1.3-0.1,1.7l0.4,0.5l-0.6-0.2c-0.9-0.2-1.8,0.2-2.2,0.9c-0.4,0.7-0.3,1.6,0,2.2l0.1,0.2
						l-0.3,0.1c-0.8,0.2-1.3,1.1-1.3,1.7c-0.1,0.7,0.1,1.3,0.3,1.8C125.7,218.2,126,218.7,126,218.7z"/>
				</g>
			</g>
			<g>
				<g>
					<path class="st5" d="M126.9,250.3c0,0-0.2,0-0.5-0.2c-0.3-0.2-0.8-0.4-1.2-0.9c-0.4-0.5-0.8-1.3-0.9-2.2
						c-0.1-0.9,0.3-2,1.1-2.9l0,0.3c-0.5-0.7-1.1-1.5-1.4-2.6c-0.1-0.5-0.1-1.1,0.1-1.7c0.2-0.5,0.6-1.1,1.2-1.3l-0.1,0.5
						c-0.9-0.6-1.4-1.7-1.3-2.7c0-0.6,0.2-1.2,0.5-1.7c0.3-0.5,0.9-0.9,1.3-1.1c0.5-0.2,0.7-0.5,0.7-1c0-0.5,0.1-1.1,0.3-1.5
						c0.4-1,1.2-1.6,1.9-2.1c0.7-0.5,1.3-1,2-1.4c1.2-0.8,2.3-1.3,3.2-1.5c0.4-0.1,0.7-0.1,1-0.1c0.2,0,0.3,0,0.3,0.1
						c0,0.1-0.5,0-1.2,0.2c-0.8,0.2-1.8,0.7-3,1.6c-0.6,0.4-1.2,0.9-1.9,1.4c-0.7,0.5-1.4,1.1-1.8,1.9c-0.2,0.4-0.3,0.9-0.3,1.4
						c0,0.3-0.1,0.6-0.3,0.9c-0.2,0.3-0.5,0.4-0.7,0.5c-1,0.3-1.5,1.3-1.6,2.3c0,0.9,0.3,1.8,1,2.3l0.4,0.3l-0.5,0.2
						c-0.9,0.3-1.2,1.5-1,2.4c0.2,0.9,0.7,1.7,1.2,2.4l0.1,0.2l-0.1,0.1c-0.7,0.7-1,1.7-1,2.6c0,0.9,0.4,1.6,0.7,2.1
						C126.1,250.1,126.9,250.3,126.9,250.3z"/>
				</g>
			</g>
			<g>
				<g>
					<path class="st5" d="M143.1,236.8c0,0-0.3,0-0.7-0.2c-0.5-0.1-1.1-0.4-1.8-0.9c-0.7-0.5-1.5-1.3-2.1-2.4
						c-0.3-0.5-0.6-1.2-0.4-2c0.1-0.4,0.4-0.7,0.8-0.9c0.4-0.2,0.9-0.2,1.3,0.2l-0.4,0.2c-0.2-0.6-0.5-1.2-0.4-2
						c0.1-0.4,0.3-0.7,0.6-1c0.3-0.3,0.9-0.3,1.2-0.2c0.3,0.1,0.7,0.2,0.9,0.1c0.2-0.1,0.2-0.3,0.2-0.7c0-0.8,0.3-1.6,0.9-2.2
						c0.9-1,2.3-1.4,3.5-1l-0.3,0.3c-0.2-1-0.2-2.1,0.5-2.9c0.4-0.4,0.9-0.5,1.4-0.4c0.5,0,1,0.3,1.2,0.8l-0.4,0.1
						c-0.1-1.5,0.3-2.8,0.9-3.8c0.6-1,1.3-1.8,1.9-2.3c0.7-0.5,1.3-0.8,1.7-0.9c0.4-0.1,0.7-0.2,0.7-0.2c0,0.1-0.9,0.3-2.2,1.3
						c-0.6,0.5-1.3,1.3-1.8,2.2c-0.5,1-0.9,2.2-0.8,3.6l0.1,1.9l-0.6-1.8c-0.2-0.6-1.3-0.7-1.8-0.2c-0.6,0.5-0.6,1.5-0.4,2.4
						l0.1,0.5l-0.5-0.2c-1-0.3-2.2,0-3,0.9c-0.5,0.5-0.8,1.2-0.7,1.8c0,0.2,0,0.4,0,0.6c-0.1,0.2-0.3,0.5-0.5,0.6
						c-0.5,0.1-0.9-0.1-1.2-0.1c-0.3-0.1-0.6-0.1-0.8,0.1c-0.2,0.2-0.4,0.4-0.4,0.7c-0.1,0.6,0.1,1.2,0.3,1.7l0.5,1.3l-0.9-1
						c-0.3-0.4-1.2,0-1.3,0.5c-0.2,0.6,0,1.2,0.3,1.7c0.5,1.1,1.2,1.8,1.9,2.4C142.1,236.6,143.1,236.7,143.1,236.8z"/>
				</g>
			</g>
			<g>
				<g>
					<path class="st5" d="M169.1,204.8c0,0.1-0.6-0.1-1.5-0.6c-0.4-0.3-1-0.6-1.4-1.2c-0.4-0.6-0.7-1.4-0.5-2.3
						c0-0.2,0.1-0.4,0.2-0.5l0.1,0.4c-0.7-0.4-1.2-1.1-1.3-1.7c-0.1-0.7,0.1-1.3,0.3-1.7c0.6-0.8,1.2-0.9,1.2-0.9
						c0,0.1-0.5,0.3-0.9,1c-0.2,0.4-0.3,0.9-0.2,1.4c0.1,0.5,0.5,1.1,1.1,1.4l0.2,0.1l-0.1,0.2c-0.1,0.1-0.1,0.3-0.2,0.4
						c-0.2,0.7,0.1,1.4,0.4,1.9c0.3,0.5,0.8,0.9,1.2,1.2C168.6,204.4,169.2,204.7,169.1,204.8z"/>
				</g>
			</g>
			<g>
				<g>
					<path class="st5" d="M181.2,199.2c-0.1,0,0.6-0.7,0.4-1.9c-0.1-0.6-0.5-1.3-1.2-1.6c-0.7-0.3-1.8-0.3-2.5,0.4l-0.3,0.3
						l-0.1-0.4c-0.1-0.5-0.3-1.1-0.6-1.5c-0.3-0.5-0.8-0.9-1.3-0.9c-0.8-0.1-1.8,0.7-1.5,1.3l-0.5,0.1c-0.1-1.1-0.7-2-1.4-2.6
						c-0.7-0.6-1.5-0.8-2.2-0.9c-1.4-0.1-2.1,0.5-2.2,0.4c0,0,0.1-0.2,0.5-0.3c0.4-0.2,0.9-0.4,1.7-0.4c0.7,0,1.7,0.2,2.5,0.8
						c0.8,0.6,1.5,1.6,1.7,2.9l-0.5,0.1c-0.2-0.5,0.1-1.2,0.5-1.5c0.4-0.4,1-0.6,1.6-0.5c0.8,0.1,1.3,0.6,1.7,1.2
						c0.4,0.6,0.5,1.1,0.6,1.7l-0.4-0.1c0.9-0.8,2.1-0.8,3-0.4c0.9,0.4,1.3,1.3,1.3,2c0.1,0.7-0.1,1.2-0.3,1.5
						C181.4,199.1,181.2,199.2,181.2,199.2z"/>
				</g>
			</g>
		</g>
		<g>
			<g>
				<path class="st10" d="M232.1,377.2l15.2-6.3c0,0-2.5-19.3-9.1-37.3c-5.4-15.1-14.4-21.8-17.2-23.7l-0.1-0.2l-4.5-2.7l-19.5-12.5
					c3.4,15.6-24.4,31.5-48.1-1.9l-39.2,15.8l10.2,110.9l-9.7,49.1l98-0.3l0,0.9l20.8-0.2l-4.5-21.8c1.9-20.9,8.2-46.4,7.4-63.2
					C232.1,381.8,232.1,379.6,232.1,377.2z"/>
			</g>
			<g>
				<g>
					<g>
						<g>
							<g>
								<g>
									<g>
										<g>
											<path class="st10" d="M227.7,420.8c0,0,0.1-0.3,0.2-0.8c0.1-0.6,0.3-1.3,0.6-2.3c0.3-1,0.5-2.2,0.8-3.6
												c0.3-1.4,0.7-3,0.9-4.9c0.3-1.8,0.7-3.8,0.9-5.9c0.3-2.1,0.5-4.4,0.8-6.8c0.4-4.8,0.7-10.1,0.7-15.7
												c0-5.6-0.3-10.9-0.8-15.7c-0.3-2.4-0.5-4.7-0.8-6.8c-0.3-2.1-0.6-4.1-0.9-5.9c-0.3-1.8-0.7-3.4-1-4.8
												c-0.3-1.4-0.6-2.6-0.8-3.6c-0.2-1-0.4-1.7-0.6-2.3c-0.1-0.5-0.2-0.8-0.2-0.8c0,0,0,0.3,0.1,0.8c0.1,0.6,0.3,1.3,0.5,2.3
												c0.2,1,0.5,2.2,0.7,3.6c0.3,1.4,0.6,3,0.9,4.9c0.3,1.8,0.6,3.8,0.9,5.9c0.3,2.1,0.5,4.4,0.8,6.8
												c0.4,4.8,0.7,10.1,0.7,15.7c0,5.6-0.3,10.9-0.7,15.7c-0.2,2.4-0.4,4.7-0.8,6.8c-0.3,2.1-0.6,4.1-0.9,5.9
												c-0.3,1.8-0.6,3.4-0.9,4.9c-0.3,1.4-0.5,2.7-0.7,3.7c-0.2,1-0.4,1.7-0.5,2.3C227.7,420.5,227.7,420.8,227.7,420.8z"/>
										</g>
									</g>
								</g>
							</g>
						</g>
					</g>
				</g>
				<g>
					<g>
						<g>
							<path class="st10" d="M227.9,420c0,0,0,0.2-0.1,0.5c-0.1,0.4-0.2,0.9-0.3,1.4c-0.2,1.2-0.6,3-0.9,5.2
								c-0.7,4.4-1.6,10.6-1.6,17.4c0,3.4,0.2,6.7,0.6,9.6c0.4,2.9,0.9,5.6,1.4,7.7c0.2,1.1,0.5,2.1,0.8,2.9
								c0.2,0.9,0.4,1.6,0.6,2.2c0.2,0.6,0.3,1,0.4,1.4c0.1,0.3,0.1,0.5,0.1,0.5c0,0-0.1-0.2-0.2-0.5c-0.1-0.4-0.3-0.8-0.5-1.4
								c-0.2-0.6-0.5-1.3-0.7-2.2c-0.3-0.9-0.6-1.8-0.8-2.9c-0.6-2.2-1.1-4.8-1.5-7.8c-0.4-3-0.6-6.2-0.6-9.7
								c0-6.9,0.9-13.1,1.8-17.5c0.4-2.2,0.8-4,1.1-5.2c0.1-0.6,0.3-1,0.4-1.4C227.9,420.2,227.9,420,227.9,420z"/>
						</g>
					</g>
				</g>
			</g>
			<g>
				<path class="st10" d="M70.6,386.2l20.1-57.5c0,0,5.3-16.9,21.2-21.1l11.4,57.5l-5.3,31.4L70.6,386.2z"/>
			</g>
			<g>
				<g>
					<path class="st10" d="M127.3,350c0,0,0,0.2,0,0.5c0,0.4-0.1,0.8-0.1,1.4c-0.1,1.2-0.4,2.9-0.7,5c-0.7,4.2-1.8,10.1-3.3,16.5
						c-1.4,6.4-2.7,12.2-3.6,16.4c-0.4,2-0.8,3.7-1,5c-0.1,0.5-0.2,1-0.3,1.4c-0.1,0.3-0.1,0.5-0.1,0.5c0,0,0-0.2,0-0.5
						c0.1-0.4,0.1-0.8,0.2-1.4c0.2-1.2,0.5-2.9,0.9-5c0.8-4.2,2-10,3.5-16.4c1.4-6.4,2.7-12.2,3.4-16.4c0.4-2.1,0.7-3.8,0.9-5
						c0.1-0.5,0.2-1,0.2-1.4C127.2,350.2,127.2,350,127.3,350z"/>
				</g>
			</g>
			<g>
				<g>
					<path class="st10" d="M201.2,298c0,0,0,0.3,0,0.8c0,0.2,0,0.6-0.1,0.9c-0.1,0.4-0.1,0.8-0.2,1.2c-0.1,0.5-0.3,1-0.4,1.5
						c-0.2,0.5-0.4,1.1-0.7,1.7c-0.6,1.2-1.4,2.5-2.6,3.8c-2.3,2.6-5.8,4.8-10,6.5c-4.2,1.7-9.3,2.4-14.4,1.7
						c-5.2-0.7-9.9-2.5-13.7-4.9c-3.8-2.4-6.8-5.2-9.1-7.7c-2.4-2.5-4.1-4.6-5.2-6.1c-0.6-0.8-1-1.3-1.3-1.7
						c-0.3-0.4-0.4-0.6-0.4-0.6c0,0,0.2,0.2,0.5,0.6c0.3,0.4,0.8,1,1.4,1.7c1.2,1.5,3,3.6,5.3,6c2.4,2.4,5.4,5.1,9.1,7.5
						c3.8,2.4,8.4,4.1,13.5,4.8c5.1,0.7,10.1,0.1,14.2-1.6c4.1-1.6,7.6-3.8,9.9-6.3c1.1-1.2,2-2.5,2.6-3.7c0.3-0.6,0.5-1.2,0.8-1.7
						c0.2-0.5,0.3-1,0.5-1.5c0.1-0.5,0.2-0.9,0.3-1.2c0.1-0.4,0.1-0.7,0.1-0.9C201.2,298.2,201.2,298,201.2,298z"/>
				</g>
			</g>
			<g class="st11">
				<g>
					<path class="st10" d="M117.6,427.4c5.9-7,6.5-17,6.8-26.2c0.4-11.7,0.1-25.1,0.5-36.8c-2.2,10.3-5.4,26.2-7,32.2
						c0,0,0.8,6.1,0.8,8.5c0,2.2-0.2,4.6,0.1,6.7c0.5,5.6,1.4,11.8-1.8,16.4"/>
				</g>
			</g>
			<g>
				<g>
					<path class="st10" d="M229.5,352.6c0,0-0.1,0-0.3,0.1c-0.2,0.1-0.4,0.1-0.8,0.2c-0.7,0.2-1.7,0.5-2.9,0.9
						c-1.3,0.4-2.8,0.9-4.6,1.3c-1.8,0.5-3.9,1.1-6.2,1.6c-2.3,0.5-4.8,1.1-7.6,1.7c-2.7,0.6-5.7,1.1-8.8,1.6
						c-6.2,0.9-13.1,1.7-20.3,2.2c-7.2,0.4-14.1,0.4-20.4,0.1c-3.1-0.2-6.1-0.3-8.9-0.6c-2.8-0.2-5.4-0.5-7.7-0.8
						c-2.4-0.3-4.5-0.6-6.3-0.9c-1.9-0.3-3.5-0.6-4.8-0.8c-1.3-0.3-2.3-0.4-3-0.6c-0.3-0.1-0.6-0.1-0.8-0.2c-0.2,0-0.3-0.1-0.3-0.1
						c0,0,0.1,0,0.3,0c0.2,0,0.5,0.1,0.8,0.1c0.7,0.1,1.7,0.3,3,0.5c1.3,0.2,2.9,0.5,4.8,0.7c1.9,0.2,4,0.6,6.3,0.8
						c2.4,0.3,4.9,0.6,7.7,0.8c2.8,0.3,5.7,0.4,8.9,0.5c6.3,0.2,13.1,0.2,20.4-0.2c7.2-0.4,14-1.2,20.2-2.1c3.1-0.5,6-1,8.8-1.5
						c2.7-0.5,5.3-1.1,7.6-1.6c2.3-0.5,4.4-1.1,6.2-1.5c1.8-0.4,3.4-0.9,4.7-1.2c1.2-0.3,2.2-0.6,2.9-0.8c0.3-0.1,0.6-0.1,0.8-0.2
						C229.4,352.6,229.5,352.6,229.5,352.6z"/>
				</g>
			</g>
			<g>
				<g>
					<path class="st10" d="M240.4,340.2c0.1,0.1-2.3,1.7-5.3,3.6c-3,1.9-5.5,3.3-5.6,3.2c-0.1-0.1,2.3-1.7,5.3-3.6
						C237.8,341.4,240.3,340,240.4,340.2z"/>
				</g>
			</g>
			<g>
				<g>
					<path class="st10" d="M126.2,355.5c0,0-0.6,0-1.7-0.1c-1.1-0.1-2.6-0.3-4.5-0.5c-3.8-0.5-9.1-1.5-14.8-2.9
						c-5.7-1.5-10.7-3.3-14.3-4.7c-1.8-0.7-3.2-1.3-4.2-1.8c-1-0.4-1.5-0.7-1.5-0.7c0,0,0.6,0.2,1.6,0.6c1,0.4,2.5,0.9,4.3,1.6
						c3.6,1.3,8.6,3,14.3,4.5c5.7,1.5,10.9,2.5,14.7,3.1c1.9,0.3,3.4,0.5,4.5,0.7C125.6,355.4,126.2,355.5,126.2,355.5z"/>
				</g>
			</g>
		</g>
		<g>
			<g>
				<g>
					<g>
						<path class="st7" d="M154.7,434.2l15.2,0.3c0,0,22.8-8.3,27.5-7.5c4.2,0.7,19.7,11,22.8,13c0.3,0.2,0.6,0.6,0.7,0.9l0,0
							c0.6,1.7-0.2,3.5-1.8,4.2l-0.3,0.1l0.1,0.5c0.2,0.6,0.3,1.2,0.2,1.8c-0.1,2.2-3,2.8-4.1,1l0.6,1c0.2,0.4,0.3,0.9,0.3,1.4
							l-0.1,0.9c-0.1,1-0.8,2-1.7,2.3l0,0c-0.9,0.3-2,0-2.7-0.7c-2-2.2-6.2-6.5-9.1-7c-2.6-0.4-6.8-0.5-9.4-0.5
							c-1.3,0-2.5,0.8-2.9,2l0,0c1.7,0.1,13.6,6.3,17.8,8.5c1.3,0.7,2.3,1.9,2.4,3.4c0.2,1.3-0.5,2.7-3.1,2.1
							c-5.6-1.3-15.6-5.9-15.6-5.9s-5.2-1.5-8.5,0.9c-4.7,3.3-6.9,4.6-10.9,3.2c-4.1-1.3-7-3.3-7-3.3l-14.6,0.9
							C150.4,457.9,142.7,444.6,154.7,434.2z"/>
					</g>
				</g>
				<g>
					<g>
						<g>
							<path class="st8" d="M190,438.3c0,0.1,1.6-0.4,4.3-0.6c2.7-0.2,6.4,0.1,10.2,1.7c3.8,1.6,6.6,4.1,8.3,6.2
								c1.7,2,2.5,3.6,2.5,3.5c0,0-0.1-0.4-0.5-1.1c-0.4-0.7-1-1.6-1.8-2.6c-1.7-2.1-4.5-4.7-8.4-6.4c-3.8-1.6-7.7-1.9-10.4-1.6
								c-1.3,0.1-2.4,0.3-3.2,0.5C190.3,438.2,190,438.3,190,438.3z"/>
						</g>
					</g>
				</g>
				<g>
					<g>
						<g>
							<path class="st8" d="M192.4,432.8c0,0.1,1.7-0.7,4.5-0.8c2.8-0.1,6.7,0.7,10.4,2.9c3.7,2.2,6.4,5.1,8.4,7.1
								c0.9,1,1.7,1.8,2.3,2.4c0.5,0.6,0.9,0.9,0.9,0.9c0,0-0.2-0.4-0.8-1c-0.5-0.6-1.2-1.5-2.2-2.5c-1.9-2.1-4.6-5-8.4-7.2
								c-3.7-2.3-7.8-3.1-10.6-2.9c-1.4,0.1-2.6,0.3-3.3,0.6c-0.4,0.1-0.7,0.3-0.9,0.3C192.5,432.7,192.4,432.8,192.4,432.8z"/>
						</g>
					</g>
				</g>
			</g>
			<path class="st7" d="M76.5,387.5c0-0.1-7.9,35.6-9,41.9c-1.2,7.3-3.2,25.2,13.2,28.7c16.4,3.5,84.3-1,84.3-1l4.9-22.6l-62.3-8.8
				l6.8-29.9L76.5,387.5z"/>
		</g>
	</g>
</g>
<g id="Speech_Bubble">
	<g>
		<g>
			<g>
				<path class="st6" d="M78.5,93.7c0-3,1.6-4.9,3.8-4.9s3.8,1.8,3.8,4.9c0,3-1.6,4.9-3.8,4.9S78.5,96.8,78.5,93.7z M85.1,93.7
					c0-2.6-1.1-4-2.8-4s-2.8,1.4-2.8,4c0,2.6,1.1,4,2.8,4S85.1,96.3,85.1,93.7z"/>
				<path class="st6" d="M87.5,93.7c0-3,1.6-4.9,3.8-4.9c2.2,0,3.8,1.8,3.8,4.9c0,3-1.6,4.9-3.8,4.9C89.1,98.6,87.5,96.8,87.5,93.7z
					 M94.1,93.7c0-2.6-1.1-4-2.8-4c-1.7,0-2.8,1.4-2.8,4c0,2.6,1.1,4,2.8,4C93,97.7,94.1,96.3,94.1,93.7z"/>
				<path class="st6" d="M99.2,88.9v9.6h-1v-8.7h-2.3v-0.9H99.2z"/>
				<path class="st6" d="M101.4,93.7c0-3,1.6-4.9,3.8-4.9c2.2,0,3.8,1.8,3.8,4.9c0,3-1.6,4.9-3.8,4.9
					C103,98.6,101.4,96.8,101.4,93.7z M108.1,93.7c0-2.6-1.1-4-2.8-4c-1.7,0-2.8,1.4-2.8,4c0,2.6,1.1,4,2.8,4
					C106.9,97.7,108.1,96.3,108.1,93.7z"/>
				<path class="st6" d="M113.1,88.9v9.6h-1v-8.7h-2.3v-0.9H113.1z"/>
			</g>
			<g>
				<path class="st6" d="M69.1,107.3c0-3,1.6-4.9,3.8-4.9c2.2,0,3.8,1.8,3.8,4.9c0,3-1.6,4.9-3.8,4.9
					C70.7,112.1,69.1,110.3,69.1,107.3z M75.7,107.3c0-2.6-1.1-4-2.8-4c-1.7,0-2.8,1.4-2.8,4c0,2.6,1.1,4,2.8,4
					C74.5,111.2,75.7,109.8,75.7,107.3z"/>
				<path class="st6" d="M78.1,107.3c0-3,1.6-4.9,3.8-4.9c2.2,0,3.8,1.8,3.8,4.9c0,3-1.6,4.9-3.8,4.9
					C79.7,112.1,78.1,110.3,78.1,107.3z M84.7,107.3c0-2.6-1.1-4-2.8-4s-2.8,1.4-2.8,4c0,2.6,1.1,4,2.8,4S84.7,109.8,84.7,107.3z"/>
				<path class="st6" d="M89.8,102.5v9.6h-1v-8.7h-2.3v-0.9H89.8z"/>
				<path class="st6" d="M92,107.3c0-3,1.6-4.9,3.8-4.9s3.8,1.8,3.8,4.9c0,3-1.6,4.9-3.8,4.9S92,110.3,92,107.3z M98.6,107.3
					c0-2.6-1.1-4-2.8-4c-1.7,0-2.8,1.4-2.8,4c0,2.6,1.1,4,2.8,4C97.5,111.2,98.6,109.8,98.6,107.3z"/>
				<path class="st6" d="M103.7,102.5v9.6h-1v-8.7h-2.3v-0.9H103.7z"/>
				<path class="st6" d="M108.6,102.5v9.6h-1v-8.7h-2.3v-0.9H108.6z"/>
				<path class="st6" d="M110.9,107.3c0-3,1.6-4.9,3.8-4.9c2.2,0,3.8,1.8,3.8,4.9c0,3-1.6,4.9-3.8,4.9
					C112.5,112.1,110.9,110.3,110.9,107.3z M117.5,107.3c0-2.6-1.1-4-2.8-4s-2.8,1.4-2.8,4c0,2.6,1.1,4,2.8,4
					S117.5,109.8,117.5,107.3z"/>
				<path class="st6" d="M122.5,102.5v9.6h-1v-8.7h-2.3v-0.9H122.5z"/>
			</g>
			<g>
				<path class="st6" d="M78.5,120.4c0-3,1.6-4.9,3.8-4.9c2.2,0,3.8,1.8,3.8,4.9c0,3-1.6,4.9-3.8,4.9
					C80.1,125.2,78.5,123.4,78.5,120.4z M85.1,120.4c0-2.6-1.1-4-2.8-4c-1.7,0-2.8,1.4-2.8,4c0,2.6,1.1,4,2.8,4
					C83.9,124.3,85.1,122.9,85.1,120.4z"/>
				<path class="st6" d="M90.1,115.6v9.6h-1v-8.7h-2.3v-0.9H90.1z"/>
				<path class="st6" d="M95.1,115.6v9.6h-1v-8.7h-2.3v-0.9H95.1z"/>
				<path class="st6" d="M100,115.6v9.6h-1v-8.7h-2.3v-0.9H100z"/>
				<path class="st6" d="M102.3,120.4c0-3,1.6-4.9,3.8-4.9c2.2,0,3.8,1.8,3.8,4.9c0,3-1.6,4.9-3.8,4.9
					C103.8,125.2,102.3,123.4,102.3,120.4z M108.9,120.4c0-2.6-1.1-4-2.8-4s-2.8,1.4-2.8,4c0,2.6,1.1,4,2.8,4
					S108.9,122.9,108.9,120.4z"/>
				<path class="st6" d="M113.9,115.6v9.6h-1v-8.7h-2.3v-0.9H113.9z"/>
			</g>
		</g>
		<g>
			<g>
				<g>
					<g>
						<g>
							<g>
								<g>
									<path class="st6" d="M133.1,141.7c0,0-0.5,0-1.3,0.2c-0.8,0.2-1.9,0.6-2.9,1.7c-0.5,0.5-0.9,1.2-1.2,2
										c-0.2,0.8-0.3,1.7,0,2.6c0.5,1.8,2.2,3.6,4.3,3.8c2.2,0.2,4.2-1.1,5.1-2.7c0.5-0.8,0.6-1.7,0.6-2.6
										c-0.1-0.8-0.3-1.6-0.7-2.2c-0.7-1.3-1.7-2-2.4-2.3c-0.7-0.3-1.2-0.4-1.2-0.4c0,0,0.1,0,0.3,0c0.1,0,0.2,0,0.4,0.1
										c0.2,0,0.3,0.1,0.5,0.2c0.8,0.3,1.8,1,2.6,2.3c0.4,0.6,0.7,1.4,0.7,2.3c0.1,0.9-0.1,1.9-0.6,2.8c-0.5,0.9-1.2,1.7-2.2,2.2
										c-0.9,0.6-2.1,0.9-3.3,0.7c-1.2-0.1-2.2-0.7-3-1.5c-0.8-0.7-1.4-1.7-1.6-2.7c-0.3-1-0.2-2,0-2.8c0.3-0.9,0.7-1.6,1.3-2.1
										c1.1-1.1,2.3-1.5,3.1-1.7c0.2,0,0.4-0.1,0.6-0.1c0.2,0,0.3,0,0.4,0C133,141.7,133.1,141.7,133.1,141.7z"/>
								</g>
							</g>
						</g>
					</g>
				</g>
				<g>
					<g>
						<g>
							<g>
								<g>
									<g>
										<path class="st6" d="M138.7,119.2c0,0,0-0.2,0.1-0.7c0.1-0.5,0.2-1.1,0.4-2c0.1-0.4,0.2-0.9,0.3-1.5
											c0.1-0.5,0.1-1.1,0.2-1.8c0.1-0.6,0.1-1.3,0.2-2.1c0-0.4,0.1-0.8,0-1.2c0-0.4,0-0.8,0-1.2c0.1-3.4-0.4-7.5-1.7-12.1
											c-1.3-4.6-3.7-9.6-7.4-14.3c-0.5-0.6-1-1.2-1.4-1.8c-0.5-0.6-1.1-1.1-1.6-1.7c-0.3-0.3-0.6-0.6-0.8-0.8
											c-0.3-0.3-0.6-0.6-0.9-0.8c-0.6-0.5-1.2-1-1.9-1.6c-0.3-0.3-0.6-0.5-1-0.8c-0.3-0.2-0.7-0.5-1-0.7c-0.7-0.5-1.4-1-2.1-1.4
											c-0.7-0.5-1.5-0.8-2.2-1.3c-0.4-0.2-0.8-0.4-1.1-0.6c-0.2-0.1-0.4-0.2-0.6-0.3l-0.6-0.3c-1.6-0.7-3.3-1.5-5-1.9
											c-0.9-0.3-1.7-0.6-2.6-0.8c-0.9-0.2-1.8-0.4-2.7-0.6c-0.5-0.1-0.9-0.2-1.4-0.3c-0.5,0-0.9-0.1-1.4-0.1
											c-1-0.1-1.9-0.2-2.9-0.3c-1.9,0-3.9-0.1-5.9,0.2c-0.5,0-1,0.1-1.5,0.1c-0.2,0-0.5,0-0.7,0.1l-0.7,0.1c-1,0.2-2,0.4-3,0.6
											c-1,0.2-2,0.6-2.9,0.9c-0.5,0.2-1,0.3-1.5,0.5l-1.4,0.6c-2,0.7-3.8,1.8-5.7,2.8c-0.9,0.6-1.8,1.2-2.7,1.8l-0.7,0.4
											c-0.2,0.2-0.4,0.3-0.6,0.5l-1.3,1l-1.3,1l-1.2,1.1l-1.2,1.1l-0.6,0.6c-0.2,0.2-0.4,0.4-0.5,0.6c-0.7,0.8-1.4,1.7-2.1,2.5
											c-0.6,0.9-1.3,1.8-1.9,2.7c-2.4,3.8-4.2,8-5.4,12.4c-1.1,4.5-1.5,9-1.2,13.5c0.1,1.1,0.2,2.2,0.3,3.3
											c0.2,1.1,0.4,2.2,0.6,3.2l0.2,0.8l0.2,0.8l0.5,1.6l0.5,1.6l0.6,1.5l0.6,1.5l0.3,0.7l0.4,0.7c0.5,0.9,1,1.9,1.5,2.8
											c1.2,1.8,2.3,3.6,3.6,5.1l1,1.2c0.3,0.4,0.7,0.8,1.1,1.1c0.7,0.7,1.4,1.5,2.2,2.2c0.8,0.7,1.6,1.3,2.3,2l0.6,0.5
											c0.2,0.2,0.4,0.3,0.6,0.4c0.4,0.3,0.8,0.6,1.2,0.8c1.6,1.2,3.4,2.1,5.1,3c0.9,0.4,1.8,0.8,2.6,1.2
											c0.4,0.2,0.9,0.4,1.3,0.6c0.4,0.2,0.9,0.3,1.3,0.4c0.9,0.3,1.8,0.6,2.7,0.8c0.9,0.2,1.8,0.4,2.7,0.6
											c1.8,0.4,3.6,0.5,5.3,0.7l0.7,0.1c0.2,0,0.4,0,0.7,0c0.4,0,0.9,0,1.3,0c0.9,0,1.7,0,2.6,0c0.8-0.1,1.7-0.2,2.5-0.2
											c0.4,0,0.8-0.1,1.2-0.1c0.4-0.1,0.8-0.2,1.2-0.2c0.8-0.2,1.6-0.3,2.4-0.5c0.4-0.1,0.8-0.2,1.2-0.3
											c0.4-0.1,0.8-0.2,1.1-0.3c0.8-0.2,1.5-0.4,2.2-0.7c0.7-0.3,1.4-0.6,2.1-0.9c5.6-2.3,10-5.6,13.4-9
											c0.4-0.4,0.9-0.8,1.3-1.2c0.4-0.4,0.7-0.9,1.1-1.3c0.4-0.4,0.7-0.8,1.1-1.2c0.2-0.2,0.4-0.4,0.5-0.6
											c0.1-0.2,0.3-0.4,0.4-0.6c0.6-0.8,1.1-1.6,1.7-2.4c0.5-0.8,0.9-1.6,1.3-2.3c0.2-0.4,0.4-0.7,0.6-1.1
											c0.2-0.3,0.4-0.7,0.5-1c0.3-0.7,0.6-1.3,0.8-1.9c0.3-0.6,0.5-1.1,0.7-1.7c0.2-0.5,0.3-1,0.5-1.4c0.3-0.8,0.5-1.5,0.6-1.9
											C138.6,119.4,138.7,119.2,138.7,119.2s-0.1,0.2-0.2,0.7c-0.1,0.4-0.3,1.1-0.6,1.9c-0.1,0.4-0.3,0.9-0.4,1.4
											c-0.2,0.5-0.4,1.1-0.7,1.7c-0.3,0.6-0.5,1.2-0.8,1.9c-0.1,0.4-0.3,0.7-0.5,1c-0.2,0.4-0.4,0.7-0.6,1.1
											c-0.4,0.7-0.8,1.5-1.3,2.3c-0.5,0.8-1.1,1.6-1.7,2.4c-0.1,0.2-0.3,0.4-0.4,0.6c-0.2,0.2-0.3,0.4-0.5,0.6
											c-0.3,0.4-0.7,0.8-1.1,1.3c-0.4,0.4-0.7,0.9-1.1,1.3c-0.4,0.4-0.8,0.8-1.3,1.2c-3.4,3.4-7.9,6.7-13.5,9.1
											c-0.7,0.3-1.4,0.6-2.1,0.9c-0.7,0.3-1.5,0.5-2.2,0.7c-0.4,0.1-0.8,0.2-1.1,0.3c-0.4,0.1-0.8,0.2-1.2,0.3
											c-0.8,0.2-1.6,0.3-2.4,0.5c-0.4,0.1-0.8,0.2-1.2,0.2c-0.4,0-0.8,0.1-1.3,0.1c-0.8,0.1-1.7,0.2-2.5,0.3
											c-0.9,0.1-1.7,0-2.6,0c-0.4,0-0.9,0-1.3,0c-0.2,0-0.4,0-0.7,0l-0.7-0.1c-1.8-0.2-3.6-0.3-5.4-0.7
											c-0.9-0.2-1.8-0.3-2.7-0.6c-0.9-0.3-1.8-0.6-2.7-0.8c-0.5-0.1-0.9-0.3-1.4-0.4c-0.4-0.2-0.9-0.4-1.3-0.6
											c-0.9-0.4-1.8-0.7-2.7-1.2c-1.7-1-3.5-1.8-5.1-3c-0.4-0.3-0.8-0.6-1.2-0.9c-0.2-0.1-0.4-0.3-0.6-0.4l-0.6-0.5
											c-0.8-0.7-1.6-1.3-2.3-2c-0.8-0.7-1.4-1.5-2.2-2.2c-0.4-0.4-0.7-0.7-1.1-1.1l-1-1.2c-1.4-1.6-2.5-3.4-3.7-5.2
											c-0.5-0.9-1-1.9-1.5-2.9l-0.4-0.7l-0.3-0.8l-0.6-1.5l-0.6-1.5l-0.5-1.6l-0.5-1.6l-0.2-0.8l-0.2-0.8
											c-0.2-1.1-0.4-2.2-0.7-3.3c-0.1-1.1-0.2-2.2-0.3-3.4c-0.3-4.5,0.1-9.1,1.2-13.6c1.2-4.5,3.1-8.7,5.5-12.5
											c0.6-0.9,1.3-1.9,1.9-2.8c0.7-0.9,1.4-1.7,2.2-2.6c0.2-0.2,0.4-0.4,0.5-0.6l0.6-0.6l1.2-1.2l1.2-1.1l1.3-1l1.3-1
											c0.2-0.2,0.4-0.3,0.6-0.5l0.7-0.4c0.9-0.6,1.8-1.2,2.7-1.8c1.9-1,3.7-2.1,5.7-2.8l1.5-0.6c0.5-0.2,1-0.3,1.5-0.5
											c1-0.3,2-0.6,3-0.9c1-0.2,2-0.4,3-0.6l0.7-0.1c0.3,0,0.5-0.1,0.8-0.1c0.5,0,1-0.1,1.5-0.1c2-0.3,4-0.2,5.9-0.2
											c1,0,1.9,0.2,2.9,0.3c0.5,0,1,0.1,1.4,0.1c0.5,0.1,0.9,0.2,1.4,0.3c0.9,0.2,1.9,0.4,2.8,0.6c0.9,0.2,1.8,0.5,2.7,0.8
											c1.8,0.5,3.4,1.3,5.1,2l0.6,0.3c0.2,0.1,0.4,0.2,0.6,0.3c0.4,0.2,0.8,0.4,1.2,0.6c0.8,0.4,1.5,0.8,2.3,1.3
											c0.7,0.5,1.4,1,2.1,1.5c0.3,0.2,0.7,0.5,1,0.7c0.3,0.3,0.6,0.5,1,0.8c0.6,0.5,1.3,1.1,1.9,1.6c0.3,0.3,0.6,0.5,0.9,0.8
											c0.3,0.3,0.6,0.6,0.8,0.9c0.5,0.6,1.1,1.1,1.6,1.7c0.5,0.6,1,1.2,1.4,1.8c3.8,4.8,6.1,9.8,7.4,14.4
											c1.3,4.6,1.8,8.8,1.7,12.2c0,0.4,0,0.8,0,1.2c0,0.4,0,0.8-0.1,1.2c-0.1,0.7-0.2,1.4-0.2,2.1c-0.1,0.6-0.1,1.2-0.2,1.8
											c-0.1,0.5-0.2,1-0.3,1.5c-0.2,0.9-0.3,1.5-0.4,2C138.8,119,138.7,119.2,138.7,119.2z"/>
									</g>
								</g>
							</g>
						</g>
					</g>
				</g>
			</g>
		</g>
	</g>
</g>
<g id="Screens">
	<g>
		<g>
			<g>
				<rect x="263.5" y="225.1" class="st12" width="190.7" height="118.1"/>
			</g>
			<g>
				<g>
					<path class="st6" d="M454.2,343.2c0,0,0-0.7,0-2.1c0-1.4,0-3.5,0-6.2c0-5.4,0-13.4-0.1-23.7c0-20.5-0.1-50-0.1-86.1l0.2,0.2
						c-51.8,0-118.3,0-190.7,0.1h0l0.3-0.3c0,41.9,0,81.8,0,118.1l-0.2-0.2c56,0,103.6,0.1,137.2,0.1c16.8,0,30.2,0,39.3,0.1
						c4.6,0,8.1,0,10.5,0c1.2,0,2.1,0,2.7,0C453.9,343.2,454.2,343.2,454.2,343.2s-0.3,0-0.9,0c-0.6,0-1.5,0-2.7,0
						c-2.4,0-5.9,0-10.4,0c-9.1,0-22.5,0-39.3,0.1c-33.7,0-81.4,0.1-137.4,0.1l-0.2,0l0-0.2c0-36.3,0-76.2,0-118.1l0-0.3h0.3h0
						c72.3,0,138.9,0,190.7,0.1l0.2,0l0,0.2c0,36.2-0.1,65.7-0.1,86.2c0,10.2,0,18.2-0.1,23.6c0,2.7,0,4.8,0,6.2
						C454.2,342.5,454.2,343.2,454.2,343.2z"/>
				</g>
			</g>
		</g>
		<g>
			<g>
				<path class="st6" d="M454.1,236.6c0,0.1-42.6,0.3-95.1,0.3c-52.6,0-95.1-0.1-95.1-0.3c0-0.1,42.6-0.3,95.1-0.3
					C411.5,236.4,454.1,236.5,454.1,236.6z"/>
			</g>
		</g>
		<g>
			<g>
				<path class="st6" d="M273.7,231.4c0,0.9-0.7,1.6-1.6,1.6c-0.9,0-1.6-0.7-1.6-1.6c0-0.9,0.7-1.6,1.6-1.6
					C273,229.9,273.7,230.6,273.7,231.4z"/>
			</g>
			<g>
				<path class="st6" d="M279.3,231.4c0,0.9-0.7,1.6-1.6,1.6c-0.9,0-1.6-0.7-1.6-1.6c0-0.9,0.7-1.6,1.6-1.6
					C278.6,229.9,279.3,230.6,279.3,231.4z"/>
			</g>
			<g>
				<circle class="st6" cx="283.4" cy="231.4" r="1.6"/>
			</g>
		</g>
		<g>
			<path class="st6" d="M284.3,257.8l-4.5,1.7l4.5,1.7v1.1l-5.7-2.3V259l5.7-2.3V257.8z"/>
			<path class="st6" d="M289,253.2h1.1l-4.2,12h-1.1L289,253.2z"/>
			<path class="st6" d="M296.2,259v1.1l-5.7,2.3v-1.1l4.5-1.7l-4.5-1.7v-1.1L296.2,259z"/>
			<path class="st6" d="M297.7,263.2c0-0.5,0.4-0.9,0.9-0.9c0.5,0,0.8,0.4,0.8,0.9c0,0.5-0.4,0.9-0.8,0.9
				C298.1,264,297.7,263.7,297.7,263.2z"/>
			<path class="st6" d="M300.6,263.2c0-0.5,0.4-0.9,0.9-0.9c0.5,0,0.8,0.4,0.8,0.9c0,0.5-0.4,0.9-0.8,0.9
				C301,264,300.6,263.7,300.6,263.2z"/>
			<path class="st6" d="M303.5,263.2c0-0.5,0.4-0.9,0.9-0.9c0.5,0,0.8,0.4,0.8,0.9c0,0.5-0.4,0.9-0.8,0.9
				C303.9,264,303.5,263.7,303.5,263.2z"/>
		</g>
		<g>
			<g>
				<path class="st13" d="M404.7,274.6c0,0.1-28.2,0.3-62.9,0.3c-34.8,0-63-0.1-63-0.3s28.2-0.3,63-0.3
					C376.5,274.4,404.7,274.5,404.7,274.6z"/>
			</g>
		</g>
		<g>
			<g>
				<path class="st6" d="M425.3,275c0,0.1-2.7,0.3-6,0.3c-3.3,0-6-0.1-6-0.3c0-0.1,2.7-0.3,6-0.3C422.6,274.7,425.3,274.8,425.3,275
					z"/>
			</g>
		</g>
		<g>
			<g>
				<path class="st6" d="M443,275c0,0.1-3,0.3-6.6,0.3c-3.6,0-6.6-0.1-6.6-0.3c0-0.1,3-0.3,6.6-0.3C440,274.7,443,274.8,443,275z"/>
			</g>
		</g>
		<g>
			<g>
				<path class="st13" d="M359,285.2c0,0.1-17.9,0.3-40,0.3c-22.1,0-40-0.1-40-0.3s17.9-0.3,40-0.3C341.1,285,359,285.1,359,285.2z"
					/>
			</g>
		</g>
		<g>
			<g>
				<path class="st13" d="M358.4,324.8c0,0.1-17.9,0.3-40,0.3c-22.1,0-40-0.1-40-0.3s17.9-0.3,40-0.3
					C340.5,324.5,358.4,324.7,358.4,324.8z"/>
			</g>
		</g>
		<g>
			<g>
				<path class="st6" d="M388.1,285.2c0,0.1-4.9,0.3-10.9,0.3c-6,0-10.9-0.1-10.9-0.3s4.9-0.3,10.9-0.3
					C383.2,285,388.1,285.1,388.1,285.2z"/>
			</g>
		</g>
		<g>
			<g>
				<path class="st6" d="M387.8,324.8c0,0.1-4.9,0.3-10.9,0.3c-6,0-10.9-0.1-10.9-0.3s4.9-0.3,10.9-0.3
					C383,324.5,387.8,324.7,387.8,324.8z"/>
			</g>
		</g>
		<g>
			<g>
				<path class="st13" d="M284.2,290.6c0,0.1-1.2,0.3-2.7,0.3c-1.5,0-2.7-0.1-2.7-0.3c0-0.1,1.2-0.3,2.7-0.3
					C283,290.4,284.2,290.5,284.2,290.6z"/>
			</g>
		</g>
		<g>
			<g>
				<path class="st6" d="M302.8,290.7c0,0.1-2.6,0.3-5.9,0.3c-3.2,0-5.9-0.1-5.9-0.3s2.6-0.3,5.9-0.3
					C300.2,290.5,302.8,290.6,302.8,290.7z"/>
			</g>
		</g>
		<g>
			<g>
				<path class="st6" d="M314.7,290.7c0,0.1-2.2,0.3-5,0.3c-2.8,0-5-0.1-5-0.3s2.2-0.3,5-0.3C312.5,290.5,314.7,290.6,314.7,290.7z"
					/>
			</g>
		</g>
		<g>
			<g>
				<path class="st6" d="M329.8,290.7c0,0.1-2.3,0.3-5.1,0.3c-2.8,0-5.1-0.1-5.1-0.3s2.3-0.3,5.1-0.3
					C327.5,290.5,329.8,290.6,329.8,290.7z"/>
			</g>
		</g>
		<g>
			<g>
				<path class="st6" d="M343,290.7c0,0.1-2.1,0.3-4.7,0.3c-2.6,0-4.7-0.1-4.7-0.3s2.1-0.3,4.7-0.3C340.9,290.5,343,290.6,343,290.7
					z"/>
			</g>
		</g>
		<g>
			<g>
				<path class="st6" d="M386.8,290.7c0,0.1-9.2,0.3-20.5,0.3c-11.3,0-20.5-0.1-20.5-0.3s9.2-0.3,20.5-0.3
					C377.6,290.5,386.8,290.6,386.8,290.7z"/>
			</g>
		</g>
		<g>
			<g>
				<path class="st13" d="M283.5,297.5c0,0.1-1,0.3-2.3,0.3c-1.3,0-2.3-0.1-2.3-0.3s1-0.3,2.3-0.3
					C282.4,297.2,283.5,297.4,283.5,297.5z"/>
			</g>
		</g>
		<g>
			<g>
				<path class="st13" d="M283.7,304.6c0,0.1-1.1,0.3-2.4,0.3c-1.3,0-2.4-0.1-2.4-0.3c0-0.1,1.1-0.3,2.4-0.3
					C282.6,304.3,283.7,304.4,283.7,304.6z"/>
			</g>
		</g>
		<g>
			<g>
				<path class="st13" d="M283.7,312.6c0,0.1-1.1,0.3-2.4,0.3c-1.3,0-2.4-0.1-2.4-0.3s1.1-0.3,2.4-0.3
					C282.6,312.3,283.7,312.4,283.7,312.6z"/>
			</g>
		</g>
		<g>
			<g>
				<path class="st6" d="M327.8,312.2c0,0.1-8.1,0.3-18.1,0.3c-10,0-18.1-0.1-18.1-0.3s8.1-0.3,18.1-0.3
					C319.7,311.9,327.8,312.1,327.8,312.2z"/>
			</g>
		</g>
		<g>
			<g>
				<path class="st6" d="M324.6,304.6c0,0.1-7.7,0.3-17.2,0.3c-9.5,0-17.2-0.1-17.2-0.3c0-0.1,7.7-0.3,17.2-0.3
					C316.9,304.3,324.6,304.4,324.6,304.6z"/>
			</g>
		</g>
		<g>
			<g>
				<path class="st6" d="M407.8,297.1c0,0.1-26.2,0.3-58.6,0.3c-32.4,0-58.6-0.1-58.6-0.3s26.2-0.3,58.6-0.3
					C381.5,296.9,407.8,297,407.8,297.1z"/>
			</g>
		</g>
	</g>
	<g>
		<g>
			<g>
				<g>
					<rect x="286.5" y="65.5" class="st12" width="80.3" height="138"/>
				</g>
				<g>
					<g>
						<path class="st6" d="M366.8,203.5c0,0,0-0.2,0-0.7c0-0.5,0-1.1,0-2c0-1.7,0-4.3,0-7.6c0-6.6,0-16.3-0.1-28.5
							c0-24.4-0.1-58.8-0.1-99.3l0.2,0.2c-24.7,0-51.9,0-80.3,0h0l0.3-0.3c0,52.7,0,100.9-0.1,138l-0.2-0.2
							c24.6,0,44.7,0.1,58.6,0.1c7,0,12.4,0,16.1,0.1c1.8,0,3.2,0,4.2,0C366.3,203.5,366.8,203.5,366.8,203.5s-0.5,0-1.4,0
							c-1,0-2.3,0-4.2,0c-3.7,0-9.1,0-16,0.1c-13.9,0-34,0.1-58.7,0.1l-0.2,0l0-0.2c0-37.1,0-85.3-0.1-138l0-0.3h0.3h0
							c28.4,0,55.6,0,80.3,0h0.2l0,0.2c0,40.5-0.1,75-0.1,99.4c0,12.2-0.1,21.8-0.1,28.4c0,3.3,0,5.8,0,7.5c0,0.8,0,1.5,0,1.9
							C366.8,203.3,366.8,203.5,366.8,203.5z"/>
					</g>
				</g>
			</g>
		</g>
		<g>
			<circle class="st6" cx="292.2" cy="71.6" r="1.6"/>
			<circle class="st6" cx="298" cy="71.6" r="1.6"/>
			<path class="st6" d="M305.6,71.6c0,0.9-0.7,1.6-1.6,1.6c-0.9,0-1.6-0.7-1.6-1.6c0-0.9,0.7-1.6,1.6-1.6
				C304.8,70,305.6,70.7,305.6,71.6z"/>
		</g>
		<g>
			<g>
				<g>
					<path class="st13" d="M344.7,109.2c0,0.1-10.2,0.3-22.7,0.3c-12.6,0-22.7-0.1-22.7-0.3c0-0.1,10.2-0.3,22.7-0.3
						C334.6,109,344.7,109.1,344.7,109.2z"/>
				</g>
			</g>
			<g>
				<g>
					<path class="st13" d="M354.2,120.3c0,0.1-12.4,0.3-27.7,0.3c-15.3,0-27.7-0.1-27.7-0.3c0-0.1,12.4-0.3,27.7-0.3
						C341.8,120,354.2,120.1,354.2,120.3z"/>
				</g>
			</g>
			<g>
				<g>
					<path class="st13" d="M356.5,161.5c0,0.1-13.2,0.3-29.5,0.3c-16.3,0-29.5-0.1-29.5-0.3s13.2-0.3,29.5-0.3
						C343.3,161.2,356.5,161.4,356.5,161.5z"/>
				</g>
			</g>
			<g>
				<g>
					<path class="st13" d="M303.5,125.9c0,0.1-1.3,0.3-2.8,0.3c-1.6,0-2.8-0.1-2.8-0.3c0-0.1,1.3-0.3,2.8-0.3
						C302.3,125.6,303.5,125.8,303.5,125.9z"/>
				</g>
			</g>
			<g>
				<g>
					<path class="st13" d="M322.9,126c0,0.1-2.7,0.3-6.1,0.3c-3.4,0-6.1-0.1-6.1-0.3c0-0.1,2.7-0.3,6.1-0.3
						C320.2,125.8,322.9,125.9,322.9,126z"/>
				</g>
			</g>
			<g>
				<g>
					<path class="st13" d="M335.3,126c0,0.1-2.3,0.3-5.2,0.3c-2.9,0-5.2-0.1-5.2-0.3c0-0.1,2.3-0.3,5.2-0.3
						C333,125.8,335.3,125.9,335.3,126z"/>
				</g>
			</g>
			<g>
				<g>
					<path class="st13" d="M302.7,133.1c0,0.1-1.1,0.3-2.4,0.3c-1.3,0-2.4-0.1-2.4-0.3c0-0.1,1.1-0.3,2.4-0.3
						C301.7,132.8,302.7,132.9,302.7,133.1z"/>
				</g>
			</g>
			<g>
				<g>
					<path class="st13" d="M302.9,140.4c0,0.1-1.1,0.3-2.5,0.3c-1.4,0-2.5-0.1-2.5-0.3s1.1-0.3,2.5-0.3
						C301.8,140.2,302.9,140.3,302.9,140.4z"/>
				</g>
			</g>
			<g>
				<g>
					<path class="st13" d="M302.9,148.8c0,0.1-1.1,0.3-2.5,0.3c-1.4,0-2.5-0.1-2.5-0.3s1.1-0.3,2.5-0.3
						C301.8,148.5,302.9,148.6,302.9,148.8z"/>
				</g>
			</g>
			<g>
				<g>
					<path class="st13" d="M348.9,148.4c0,0.1-8.4,0.3-18.8,0.3c-10.4,0-18.8-0.1-18.8-0.3s8.4-0.3,18.8-0.3
						C340.5,148.1,348.9,148.2,348.9,148.4z"/>
				</g>
			</g>
			<g>
				<g>
					<path class="st13" d="M345.6,140.4c0,0.1-8,0.3-17.9,0.3c-9.9,0-17.9-0.1-17.9-0.3s8-0.3,17.9-0.3
						C337.5,140.2,345.6,140.3,345.6,140.4z"/>
				</g>
			</g>
			<g>
				<g>
					<path class="st13" d="M306.6,172.5c0,0.1-1.1,0.3-2.5,0.3c-1.4,0-2.5-0.1-2.5-0.3s1.1-0.3,2.5-0.3
						C305.5,172.2,306.6,172.4,306.6,172.5z"/>
				</g>
			</g>
			<g>
				<g>
					<path class="st13" d="M306.6,180.8c0,0.1-1.1,0.3-2.5,0.3c-1.4,0-2.5-0.1-2.5-0.3s1.1-0.3,2.5-0.3
						C305.5,180.6,306.6,180.7,306.6,180.8z"/>
				</g>
			</g>
			<g>
				<g>
					<path class="st13" d="M352.5,180.5c0,0.1-8.4,0.3-18.8,0.3c-10.4,0-18.8-0.1-18.8-0.3s8.4-0.3,18.8-0.3
						C344.1,180.2,352.5,180.3,352.5,180.5z"/>
				</g>
			</g>
			<g>
				<g>
					<path class="st13" d="M349.2,172.5c0,0.1-8,0.3-17.9,0.3c-9.9,0-17.9-0.1-17.9-0.3s8-0.3,17.9-0.3
						C341.2,172.2,349.2,172.4,349.2,172.5z"/>
				</g>
			</g>
			<g>
				<g>
					<path class="st13" d="M358.9,132.7c0,0.1-10.9,0.3-24.4,0.3c-13.5,0-24.4-0.1-24.4-0.3c0-0.1,10.9-0.3,24.4-0.3
						C348,132.4,358.9,132.5,358.9,132.7z"/>
				</g>
			</g>
			<g>
				<g>
					<path class="st6" d="M366.1,78c0,0.1-17.6,0.3-39.4,0.3c-21.8,0-39.4-0.1-39.4-0.3c0-0.1,17.6-0.3,39.4-0.3
						C348.4,77.7,366.1,77.8,366.1,78z"/>
				</g>
			</g>
			<g>
				<g>
					<path class="st13" d="M315.9,102.6c0,0.1-3.7,0.3-8.3,0.3c-4.6,0-8.3-0.1-8.3-0.3s3.7-0.3,8.3-0.3
						C312.1,102.3,315.9,102.4,315.9,102.6z"/>
				</g>
			</g>
			<g>
				<g>
					<path class="st13" d="M306.4,87.5c0,0.1-1.8,0.3-3.9,0.3c-2.2,0-3.9-0.1-3.9-0.3s1.8-0.3,3.9-0.3
						C304.7,87.2,306.4,87.3,306.4,87.5z"/>
				</g>
			</g>
		</g>
	</g>
</g>
<g id="Device">
	<g>
		<g>
			<g>
				<path class="st5" d="M349.6,469H210.2l18-97.9c0.6-3.5,3.7-6,7.2-6h125.3c4.6,0,8,4.2,7.2,8.7L349.6,469z"/>
			</g>
			<g>
				<path class="st5" d="M210.2,469h-52.9l0.2-0.2c4.7-3.5,10.4-5.5,16.3-5.7l37.8-1.1L210.2,469z"/>
			</g>
		</g>
		<g>
			<g>
				<path class="st6" d="M243.6,365.2c0,0-0.4-0.1-1.1-0.1c-0.7,0-1.8,0.1-3.1,0.8c-1.2,0.6-2.6,1.7-3.7,3.4
					c-1.1,1.7-1.8,3.9-2.3,6.3c-0.5,2.5-0.9,5.2-1.3,8.2c-0.5,2.9-1,6.1-1.7,9.4c-1.2,6.6-2.7,13.8-4.2,21.3
					c-3.1,15.1-6.1,28.8-8,38.7c-1,5-1.7,9-2.2,11.8c-0.2,1.4-0.4,2.4-0.6,3.2c-0.1,0.3-0.1,0.6-0.2,0.8c0,0.2-0.1,0.3-0.1,0.3
					c0,0,0-0.1,0-0.3c0-0.2,0.1-0.5,0.1-0.8c0.1-0.8,0.3-1.9,0.5-3.2c0.4-2.8,1.1-6.8,2-11.8c1.8-10,4.7-23.6,7.8-38.7
					c1.6-7.6,3-14.8,4.3-21.3c0.6-3.3,1.2-6.4,1.7-9.3c0.5-2.9,0.9-5.7,1.4-8.2c0.5-2.5,1.3-4.7,2.4-6.4c1.1-1.7,2.6-2.8,3.9-3.4
					c1.3-0.6,2.4-0.7,3.2-0.7C243.3,365.1,243.6,365.2,243.6,365.2z"/>
			</g>
		</g>
		<g>
			<path class="st14" d="M302.5,414.8c0,3.7-3,6.7-6.7,6.7c-3.7,0-6.7-3-6.7-6.7c0-3.7,3-6.7,6.7-6.7
				C299.5,408.1,302.5,411.1,302.5,414.8z"/>
		</g>
	</g>
</g>
<g id="Desk">
	<g>
		<g>
			<path class="st6" d="M477.3,469c0,0.1-101.8,0.3-227.3,0.3c-125.6,0-227.3-0.1-227.3-0.3c0-0.1,101.8-0.3,227.3-0.3
				C375.5,468.7,477.3,468.8,477.3,469z"/>
		</g>
	</g>
</g>
<g id="Plant">
	<g>
		<g>
			<g>
				<g>
					<path class="st0" d="M466.6,397c0,0,0-0.1-0.1-0.2c-0.1-0.2-0.2-0.4-0.3-0.6c-0.3-0.5-0.8-1.3-1.4-2.3
						c-1.4-1.9-3.5-4.6-7.1-6.8c-1.8-1.1-4-2-6.4-2.4c-2.4-0.3-5.2-0.2-7.8,0.8c-2.6,1-5.1,2.8-6.7,5.5c-1.5,2.7-2,5.8-2.9,8.8
						c-0.5,1.5-1,2.9-1.9,4.2c-0.8,1.3-2,2.2-3.2,3.1c-1.2,0.9-2.4,1.7-3.6,2.6c-1.1,0.9-2.1,2-2.9,3.1c-1.6,2.3-2.5,4.8-3,7.3
						c-0.5,2.4-0.5,4.7-0.4,6.8c0.3,4.2,1.2,7.4,1.7,9.7c0.3,1.1,0.5,2,0.7,2.6c0.2,0.6,0.3,0.9,0.3,0.9c0,0,0-0.3-0.2-0.9
						c-0.2-0.6-0.4-1.5-0.6-2.6c-0.5-2.3-1.3-5.5-1.6-9.7c-0.1-2.1,0-4.3,0.5-6.7c0.5-2.4,1.4-4.8,2.9-7.1c0.8-1.1,1.7-2.1,2.8-3
						c1.1-0.9,2.3-1.7,3.6-2.6c1.2-0.9,2.4-1.9,3.3-3.2c0.9-1.3,1.5-2.8,1.9-4.3c0.9-3.1,1.4-6.1,2.9-8.7c1.4-2.6,3.9-4.3,6.4-5.3
						c2.5-1,5.2-1.2,7.5-0.8c2.4,0.3,4.5,1.2,6.3,2.2c3.6,2.1,5.8,4.7,7.2,6.5c0.7,0.9,1.2,1.7,1.5,2.2
						C466.4,396.7,466.6,397,466.6,397z"/>
				</g>
				<path class="st0" d="M427.4,408c0.8-0.8,1.2-0.2,2.3,0c1.1,0.2,2.1,0.8,3,1.5c3.8,3.1,5.5,8.6,4.1,13.3
					c-3.5,0.2-7.1-1.7-8.9-4.7c-1.8-3-1.9-7-0.1-10.1"/>
				<path class="st0" d="M461.3,392.5c0.4-1,1-0.7,2.1-1c1.1-0.3,2.3-0.2,3.3,0.1c4.8,1.1,8.7,5.3,9.4,10.2
					c-3.1,1.7-7.1,1.5-10.1-0.4c-3-1.9-4.7-5.6-4.4-9.1"/>
				<path class="st0" d="M419.9,428.9c2.2-2.6,5.7-4.1,9.2-3.9c3.4,0.2,6.7,2,8.7,4.8c-2.5,2.3-5.9,3.6-9.3,3.7
					c-3.4,0-6.8-1.5-9.3-3.8"/>
				<path class="st0" d="M422.7,413.2c-3.4,0.1-6.9-1.4-9.1-4.1c-2.2-2.6-3.2-6.3-2.5-9.7c3.6-0.8,7.6,0.5,10.1,3.2
					c2.4,2.8,3.2,6.9,2,10.4"/>
				<path class="st0" d="M434.6,394.9c-3.2,1.2-7,0.9-10-0.8c-3-1.7-5.1-4.9-5.6-8.3c3.1-2,7.3-2.1,10.6-0.3
					c3.2,1.8,5.3,5.5,5.3,9.2"/>
				<path class="st0" d="M438.6,388.9c3.2-1.2,7-0.9,10,0.8c3,1.7,5.1,4.9,5.6,8.3c-3.1,2-7.3,2.1-10.6,0.3
					c-3.2-1.8-5.3-5.5-5.3-9.2"/>
				<path class="st0" d="M443.4,385.7c-3.3-1.1-6-3.8-7.1-7c-1.2-3.2-0.8-7,1-9.9c3.7,0.5,7,3.1,8.3,6.5c1.3,3.5,0.6,7.6-1.8,10.4"
					/>
				<path class="st0" d="M455.6,386.3c-1.2-3.2-0.8-7,1-9.9c1.8-2.9,5-5,8.4-5.4c1.9,3.2,1.9,7.4,0.1,10.6c-1.9,3.2-5.6,5.2-9.3,5.1
					"/>
			</g>
			<polyline class="st6" points="406.3,468.9 399.8,428 449.7,428.6 444.8,468.4 			"/>
			<g>
				<g>
					<g>
						<path class="st10" d="M427.9,420.6c2.7,1.7,5.8,1.9,8.3,0.7c2.5-1.2,4.2-4,4.5-7.2c-2.8-1.3-5.8-1.5-8.3-0.4
							c-2.5,1-4.5,3.3-5.5,6.2"/>
						<path class="st10" d="M450.7,429.4c2.7,1.7,5.8,1.9,8.3,0.7c2.5-1.2,4.2-4,4.5-7.2c-2.8-1.3-5.8-1.5-8.3-0.4
							c-2.5,1-4.5,3.3-5.5,6.2"/>
						<path class="st10" d="M437.9,409.7c1.3,2.9,3.8,4.8,6.5,5.1c2.7,0.3,5.7-1,7.7-3.5c-1.6-2.6-4-4.4-6.7-4.9
							c-2.7-0.5-5.6,0.3-8,2.1"/>
						<path class="st10" d="M446.2,419.9c-3.2,0-6,1.4-7.5,3.7c-1.5,2.3-1.5,5.6-0.2,8.5c3-0.3,5.7-1.7,7.3-3.9
							c1.6-2.2,2.2-5.1,1.5-8.1"/>
						<path class="st10" d="M454.2,436c-1.4,2.8-1.3,6,0.2,8.3c1.5,2.3,4.4,3.7,7.6,3.7c1-2.9,0.8-5.9-0.5-8.3
							c-1.3-2.4-3.7-3.6-6.6-4.2"/>
					</g>
					<g>
						<path class="st10" d="M467.5,437.9c0,0.1-0.5-0.7-2-1.3c-0.7-0.3-1.6-0.4-2.7-0.5c-1.1,0-2.3,0.1-3.7,0.2
							c-1.4,0.1-2.9,0.2-4.5-0.4c-1.6-0.6-2.9-2-3.7-3.6c-0.9-1.7-1.2-3.6-1.6-5.5c-0.4-1.9-0.8-3.9-1.9-5.7c-1.1-1.7-2.7-3-4.2-4.3
							c-1.5-1.3-3-2.5-4-4.1c-2.1-3.1-2.4-6.7-2-9.4c0.4-2.8,1.5-4.8,2.5-6c0.5-0.6,0.9-1.1,1.2-1.3c0.3-0.3,0.5-0.4,0.5-0.4
							c0,0-0.1,0.2-0.4,0.5c-0.3,0.3-0.7,0.8-1.1,1.4c-0.9,1.2-1.9,3.3-2.2,6c-0.4,2.7,0,6.1,2,9.1c1,1.5,2.4,2.7,4,4
							c1.5,1.3,3.2,2.6,4.3,4.4c1.2,1.8,1.6,3.9,2,5.9c0.4,1.9,0.7,3.8,1.5,5.4c0.8,1.6,2,2.9,3.5,3.4c1.5,0.6,3,0.5,4.4,0.4
							c1.4-0.1,2.6-0.2,3.7-0.1c1.1,0.1,2.1,0.3,2.8,0.6c0.7,0.3,1.2,0.7,1.5,1c0.2,0.1,0.2,0.3,0.3,0.3
							C467.5,437.8,467.5,437.9,467.5,437.9z"/>
					</g>
					<g>
						<path class="st10" d="M467.5,437.9c0,0.1-0.5-0.7-2-1.3c-0.7-0.3-1.6-0.4-2.7-0.5c-1.1,0-2.3,0.1-3.7,0.2
							c-1.4,0.1-2.9,0.2-4.5-0.4c-1.6-0.6-2.9-2-3.7-3.6c-0.9-1.7-1.2-3.6-1.6-5.5c-0.4-1.9-0.8-3.9-1.9-5.7c-1.1-1.7-2.7-3-4.2-4.3
							c-1.5-1.3-3-2.5-4-4.1c-2.1-3.1-2.4-6.7-2-9.4c0.4-2.8,1.5-4.8,2.5-6c0.5-0.6,0.9-1.1,1.2-1.3c0.3-0.3,0.5-0.4,0.5-0.4
							c0,0-0.1,0.2-0.4,0.5c-0.3,0.3-0.7,0.8-1.1,1.4c-0.9,1.2-1.9,3.3-2.2,6c-0.4,2.7,0,6.1,2,9.1c1,1.5,2.4,2.7,4,4
							c1.5,1.3,3.2,2.6,4.3,4.4c1.2,1.8,1.6,3.9,2,5.9c0.4,1.9,0.7,3.8,1.5,5.4c0.8,1.6,2,2.9,3.5,3.4c1.5,0.6,3,0.5,4.4,0.4
							c1.4-0.1,2.6-0.2,3.7-0.1c1.1,0.1,2.1,0.3,2.8,0.6c0.7,0.3,1.2,0.7,1.5,1c0.2,0.1,0.2,0.3,0.3,0.3
							C467.5,437.8,467.5,437.9,467.5,437.9z"/>
					</g>
				</g>
				<g>
					<g>
						<path class="st10" d="M372.2,442.1c0.2-4.2-1.8-8.4-5.2-10.8c-3.4-2.5-8-3.1-11.9-1.6c2.9,6.6,9.5,11.5,16.6,12.3"/>
						<path class="st10" d="M368.9,443.8c-2.4,2.7-2.3,7-0.5,10.2c1.7,3.2,4.8,5.4,7.8,7.5c1-3.4,0.9-7.2-0.4-10.5
							c-1.3-3.3-3.6-6.2-6.7-8.1"/>
						<path class="st10" d="M380.7,431.2c0.4,3.9,2.4,7.6,5.5,10c3.1,2.4,7.2,3.5,11.1,3c-0.9-3.9-2.5-7.9-5.6-10.5
							c-3-2.7-7.8-3.7-11.2-1.4"/>
						<path class="st10" d="M380.7,427.2c-0.6-3.6-4.1-6.2-7.7-6.5c-3.6-0.3-7.2,1.2-10.1,3.4c2.2,2.5,5.3,4.1,8.6,4.4
							c3.3,0.3,6.7-0.6,9.3-2.7"/>
						<path class="st10" d="M362.1,457.6c-3.4,2.9-4.3,8.1-2.9,12.4c1.4,4.3,4.8,7.7,8.5,10.2c1.4-4.2,2.3-8.8,1.6-13.2
							c-0.8-4.4-3.4-8.7-7.5-10.5"/>
						<path class="st10" d="M380.1,417.2c1.8-2.7,4.9-4.4,8.1-4.6c3.2-0.2,6.5,1.2,8.6,3.6c-1.4,3.1-4.7,5.3-8.1,5.4
							c-3.4,0.1-6.8-1.9-8.3-5"/>
						<path class="st10" d="M384.3,406.9c-3.7,1.1-7.9,0.6-11.1-1.4s-5.7-5.5-6.3-9.3c2.7-0.2,5.5-0.4,8.2,0.1
							c2.7,0.5,5.4,1.6,7.3,3.6C384.3,401.9,384.9,404.2,384.3,406.9"/>
						<path class="st10" d="M392.2,404.2c-2.5-2.1-4.1-5.3-4.1-8.6c0-3.3,1.5-6.6,4-8.7c2.5,3,4.2,6.6,4.9,10.4
							c0.3,1.4,0.4,2.9,0,4.3c-0.4,1.4-1.6,2.6-3,2.8"/>
					</g>
					<g>
						<g>
							<g class="st15">
								<path class="st10" d="M372.2,442.1c0.2-4.2-1.8-8.4-5.2-10.8c-3.4-2.5-8-3.1-11.9-1.6c2.9,6.6,9.5,11.5,16.6,12.3"/>
							</g>
							<g class="st15">
								<path class="st10" d="M368.9,443.8c-2.4,2.7-2.3,7-0.5,10.2c1.7,3.2,4.8,5.4,7.8,7.5c1-3.4,0.9-7.2-0.4-10.5
									c-1.3-3.3-3.6-6.2-6.7-8.1"/>
							</g>
							<g class="st15">
								<path class="st10" d="M380.7,431.2c0.4,3.9,2.4,7.6,5.5,10c3.1,2.4,7.2,3.5,11.1,3c-0.9-3.9-2.5-7.9-5.6-10.5
									c-3-2.7-7.8-3.7-11.2-1.4"/>
							</g>
							<g class="st15">
								<path class="st10" d="M380.7,427.2c-0.6-3.6-4.1-6.2-7.7-6.5c-3.6-0.3-7.2,1.2-10.1,3.4c2.2,2.5,5.3,4.1,8.6,4.4
									c3.3,0.3,6.7-0.6,9.3-2.7"/>
							</g>
							<g class="st15">
								<path class="st10" d="M362.1,457.6c-3.4,2.9-4.3,8.1-2.9,12.4c1.4,4.3,4.8,7.7,8.5,10.2c1.4-4.2,2.3-8.8,1.6-13.2
									c-0.8-4.4-3.4-8.7-7.5-10.5"/>
							</g>
							<g class="st15">
								<path class="st10" d="M380.1,417.2c1.8-2.7,4.9-4.4,8.1-4.6c3.2-0.2,6.5,1.2,8.6,3.6c-1.4,3.1-4.7,5.3-8.1,5.4
									c-3.4,0.1-6.8-1.9-8.3-5"/>
							</g>
							<g class="st15">
								<path class="st10" d="M384.3,406.9c-3.7,1.1-7.9,0.6-11.1-1.4s-5.7-5.5-6.3-9.3c2.7-0.2,5.5-0.4,8.2,0.1
									c2.7,0.5,5.4,1.6,7.3,3.6C384.3,401.9,384.9,404.2,384.3,406.9"/>
							</g>
							<g class="st15">
								<path class="st10" d="M392.2,404.2c-2.5-2.1-4.1-5.3-4.1-8.6c0-3.3,1.5-6.6,4-8.7c2.5,3,4.2,6.6,4.9,10.4
									c0.3,1.4,0.4,2.9,0,4.3c-0.4,1.4-1.6,2.6-3,2.8"/>
							</g>
						</g>
						<g>
							<g>
								<path class="st10" d="M405.9,429.3c0,0,0-0.1,0-0.3c0-0.2,0-0.5,0-0.8c0-0.7,0.1-1.8,0.1-3.2c0-2.7,0-6.8-1.9-11.3
									c-1-2.2-2.4-4.6-4.6-6.4c-2.1-1.9-5.1-3.1-8.3-3.1c-1.6,0-3.2,0.4-4.7,1.2c-1.5,0.8-2.7,2-3.6,3.5c-1.8,3-2.3,6.7-2.1,10.4
									c0.1,3.7,0.7,7.4,0.2,11c-0.2,1.8-0.6,3.5-1.4,5.1c-0.7,1.6-1.8,3-3.1,4c-1.3,1.1-2.8,1.6-4.3,2.2c-1.4,0.5-2.8,1.1-4,1.8
									c-2.4,1.5-4.2,3.6-5.3,5.8c-1.1,2.2-1.5,4.4-1.5,6.3c0,1.9,0.4,3.6,0.8,4.9c0.9,2.6,2,3.8,1.9,3.8c0,0-0.1-0.1-0.2-0.2
									c-0.1-0.1-0.3-0.4-0.5-0.7c-0.4-0.6-0.9-1.5-1.4-2.8c-0.5-1.3-0.9-3-0.9-4.9c0-2,0.4-4.3,1.5-6.5c1.1-2.2,2.9-4.4,5.4-6
									c2.5-1.6,5.7-2.1,8.2-4c2.5-2,3.8-5.3,4.2-8.8c0.4-3.5-0.1-7.1-0.3-10.9c-0.2-3.7,0.3-7.6,2.2-10.7c0.9-1.5,2.3-2.8,3.8-3.6
									c1.5-0.8,3.3-1.2,4.9-1.2c3.3-0.1,6.4,1.3,8.6,3.2c2.2,1.9,3.7,4.3,4.6,6.6c0.9,2.3,1.4,4.5,1.6,6.5c0.2,2,0.2,3.6,0.1,5
									c-0.1,1.4-0.2,2.4-0.2,3.2c0,0.3-0.1,0.6-0.1,0.8C406,429.3,405.9,429.3,405.9,429.3z"/>
							</g>
							<g class="st15">
								<path class="st10" d="M405.9,429.3c0,0,0-0.1,0-0.3c0-0.2,0-0.5,0-0.8c0-0.7,0.1-1.8,0.1-3.2c0-2.7,0-6.8-1.9-11.3
									c-1-2.2-2.4-4.6-4.6-6.4c-2.1-1.9-5.1-3.1-8.3-3.1c-1.6,0-3.2,0.4-4.7,1.2c-1.5,0.8-2.7,2-3.6,3.5c-1.8,3-2.3,6.7-2.1,10.4
									c0.1,3.7,0.7,7.4,0.2,11c-0.2,1.8-0.6,3.5-1.4,5.1c-0.7,1.6-1.8,3-3.1,4c-1.3,1.1-2.8,1.6-4.3,2.2c-1.4,0.5-2.8,1.1-4,1.8
									c-2.4,1.5-4.2,3.6-5.3,5.8c-1.1,2.2-1.5,4.4-1.5,6.3c0,1.9,0.4,3.6,0.8,4.9c0.9,2.6,2,3.8,1.9,3.8c0,0-0.1-0.1-0.2-0.2
									c-0.1-0.1-0.3-0.4-0.5-0.7c-0.4-0.6-0.9-1.5-1.4-2.8c-0.5-1.3-0.9-3-0.9-4.9c0-2,0.4-4.3,1.5-6.5c1.1-2.2,2.9-4.4,5.4-6
									c2.5-1.6,5.7-2.1,8.2-4c2.5-2,3.8-5.3,4.2-8.8c0.4-3.5-0.1-7.1-0.3-10.9c-0.2-3.7,0.3-7.6,2.2-10.7c0.9-1.5,2.3-2.8,3.8-3.6
									c1.5-0.8,3.3-1.2,4.9-1.2c3.3-0.1,6.4,1.3,8.6,3.2c2.2,1.9,3.7,4.3,4.6,6.6c0.9,2.3,1.4,4.5,1.6,6.5c0.2,2,0.2,3.6,0.1,5
									c-0.1,1.4-0.2,2.4-0.2,3.2c0,0.3-0.1,0.6-0.1,0.8C406,429.3,405.9,429.3,405.9,429.3z"/>
							</g>
						</g>
					</g>
				</g>
				<g>
					<path class="st10" d="M478.6,420.4c-0.1,0,0.7-1.2,0.7-3.7c0-1.2-0.2-2.7-1-4.2c-0.8-1.5-2.1-3-4.1-3.9c-1-0.5-2.1-0.8-3.2-0.9
						c-1.2-0.1-2.4,0.1-3.6,0.4c-2.4,0.6-4.9,2-7.8,2.6c-1.4,0.3-3,0.4-4.5-0.1c-1.5-0.5-2.8-1.6-3.7-2.9c-1.7-2.7-2.2-6.1-4.3-8.6
						c-1-1.2-2.4-2.1-3.9-2.6c-1.5-0.5-3.1-0.6-4.6-0.5c-3.1,0.3-5.8,1.9-7.7,4c-1.9,2.1-3.1,4.6-3.8,7c-0.7,2.4-0.9,4.8-0.8,7
						c0.2,4.3,0.9,7.8,1.3,10.2c0.2,1.2,0.4,2.1,0.5,2.8c0,0.3,0.1,0.5,0.1,0.7c0,0.2,0,0.2,0,0.2c0,0,0-0.1-0.1-0.2
						c0-0.2-0.1-0.4-0.2-0.7c-0.1-0.7-0.3-1.6-0.6-2.7c-0.5-2.4-1.2-5.8-1.5-10.2c-0.1-2.2,0.1-4.6,0.8-7.1c0.7-2.5,1.9-5.1,3.9-7.2
						c1-1.1,2.2-2.1,3.5-2.8c1.4-0.7,2.9-1.2,4.5-1.4c1.6-0.2,3.3,0,4.8,0.5c1.6,0.5,3.1,1.4,4.2,2.7c2.2,2.7,2.7,6.1,4.4,8.7
						c0.8,1.3,2,2.3,3.4,2.7c1.4,0.4,2.9,0.4,4.2,0.1c2.8-0.5,5.2-1.9,7.7-2.6c1.3-0.3,2.5-0.5,3.7-0.4c1.2,0.1,2.3,0.4,3.3,0.9
						c2,1,3.4,2.6,4.2,4.1c0.8,1.6,1,3.1,0.9,4.4c0,1.2-0.3,2.2-0.5,2.8C478.8,420.1,478.6,420.4,478.6,420.4z"/>
				</g>
				<path class="st10" d="M449.4,402.3c2.7,1.7,6.4,1.8,8.9,0.6c2.5-1.2,4.2-4,4.5-7.2c-2.8-1.3-5.8-1.5-8.3-0.4
					c-2.5,1-4.5,3.3-5.5,6.2"/>
				<path class="st10" d="M458.9,410.9c0,3.2,1.8,6.5,4.1,7.9c2.3,1.5,5.6,1.5,8.5,0.1c-0.3-3-1.7-5.7-3.9-7.3
					c-2.2-1.6-5.2-2.1-8.1-1.5"/>
				<path class="st10" d="M475.3,409c2.8,1.4,6.6,1.1,8.9-0.4c2.3-1.5,3.7-4.4,3.7-7.6c-2.9-1-5.9-0.8-8.3,0.5
					c-2.4,1.3-4.1,3.7-4.8,6.7"/>
				<path class="st10" d="M435.6,396.6c-2.4-2.1-4-5.7-3.5-8.4c0.5-2.7,2.5-5.2,5.5-6.4c2.1,2.2,3.1,5.1,2.8,7.8
					c-0.3,2.7-1.8,5.3-4.3,7.1"/>
				<g>
					<g>
						<path class="st10" d="M371.5,384.9c0,0,0-0.1,0.1-0.2c0.1-0.2,0.2-0.4,0.3-0.6c0.3-0.5,0.8-1.3,1.4-2.3
							c1.4-1.9,3.5-4.6,7.1-6.8c1.8-1.1,4-2,6.4-2.4c2.4-0.3,5.2-0.2,7.8,0.8c2.6,1,5.1,2.8,6.7,5.5c1.5,2.7,2,5.8,2.9,8.8
							c0.5,1.5,1,2.9,1.9,4.2c0.8,1.3,2,2.2,3.2,3.1c1.2,0.9,2.4,1.7,3.6,2.6c1.1,0.9,2.1,2,2.9,3.1c1.6,2.3,2.5,4.8,3,7.3
							c0.5,2.4,0.5,4.7,0.4,6.8c-0.3,4.2-1.2,7.4-1.7,9.7c-0.3,1.1-0.5,2-0.7,2.6c-0.2,0.6-0.3,0.9-0.3,0.9c0,0,0-0.3,0.2-0.9
							c0.2-0.6,0.4-1.5,0.6-2.6c0.5-2.3,1.3-5.5,1.6-9.7c0.1-2.1,0-4.3-0.5-6.7c-0.5-2.4-1.4-4.8-2.9-7.1c-0.8-1.1-1.7-2.1-2.8-3
							c-1.1-0.9-2.3-1.7-3.6-2.6c-1.2-0.9-2.4-1.9-3.3-3.2c-0.9-1.3-1.5-2.8-1.9-4.3c-0.9-3.1-1.4-6.1-2.9-8.7
							c-1.4-2.6-3.9-4.3-6.4-5.3c-2.5-1-5.2-1.2-7.5-0.8c-2.4,0.3-4.5,1.2-6.3,2.2c-3.6,2.1-5.8,4.7-7.2,6.5
							c-0.7,0.9-1.2,1.7-1.5,2.2C371.7,384.6,371.5,384.9,371.5,384.9z"/>
					</g>
					<path class="st10" d="M410.7,395.9c-0.8-0.8-1.2-0.2-2.3,0c-1.1,0.2-2.1,0.8-3,1.5c-3.8,3.1-5.5,8.6-4.1,13.3
						c3.5,0.2,7.1-1.7,8.9-4.7c1.8-3,1.9-7,0.1-10.1"/>
					<path class="st10" d="M376.8,380.4c-0.4-1-1-0.7-2.1-1c-1.1-0.3-2.3-0.2-3.3,0.1c-4.8,1.1-8.7,5.3-9.4,10.2
						c3.1,1.7,7.1,1.5,10.1-0.4c3-1.9,4.7-5.6,4.4-9.1"/>
					<path class="st10" d="M418.2,416.8c-2.2-2.6-5.7-4.1-9.2-3.9c-3.4,0.2-6.7,2-8.7,4.8c2.5,2.3,5.9,3.6,9.3,3.7
						c3.4,0,6.8-1.5,9.3-3.8"/>
					<path class="st10" d="M415.4,401.2c3.4,0.1,6.9-1.4,9.1-4.1c2.2-2.6,3.2-6.3,2.5-9.7c-3.6-0.8-7.6,0.5-10.1,3.2
						c-2.4,2.8-3.2,6.9-2,10.4"/>
					<path class="st10" d="M403.5,382.8c3.2,1.2,7,0.9,10-0.8c3-1.7,5.1-4.9,5.6-8.3c-3.1-2-7.3-2.1-10.6-0.3
						c-3.2,1.8-5.3,5.5-5.3,9.2"/>
					<path class="st10" d="M399.5,376.8c-3.2-1.2-7-0.9-10,0.8c-3,1.7-5.1,4.9-5.6,8.3c3.1,2,7.3,2.1,10.6,0.3
						c3.2-1.8,5.3-5.5,5.3-9.2"/>
					<path class="st10" d="M394.7,373.6c3.3-1.1,6-3.8,7.1-7s0.8-7-1-9.9c-3.7,0.5-7,3.1-8.3,6.5c-1.3,3.5-0.6,7.6,1.8,10.4"/>
					<path class="st10" d="M382.5,374.2c1.2-3.2,0.8-7-1-9.9c-1.8-2.9-5-5-8.4-5.4c-1.9,3.2-1.9,7.4-0.1,10.6
						c1.9,3.2,5.6,5.2,9.3,5.1"/>
				</g>
			</g>
		</g>
		<polygon class="st6" points="399.2,464.2 403,468.9 450,468.9 453.2,464.2 		"/>
		<g>
			<path class="st5" d="M452.1,464.1c0,0.1-11.5,0.3-25.8,0.3c-14.2,0-25.8-0.1-25.8-0.3c0-0.1,11.5-0.3,25.8-0.3
				C440.6,463.9,452.1,464,452.1,464.1z"/>
		</g>
		<g>
			<path class="st5" d="M446.9,446.3c0,0-0.1,0.1-0.3,0.4c-0.2,0.2-0.5,0.6-1,1c-0.9,0.8-2.3,1.9-4.2,2.9c-1.9,0.9-4.5,1.8-7.3,1.9
				c-1.4,0.1-3,0-4.5-0.4c-1.5-0.3-3.1-0.9-4.6-1.5c-3-1.3-5.8-2.8-8.5-3.6c-2.7-0.9-5.2-1.1-7.3-0.7c-2.1,0.4-3.6,1.3-4.5,2.1
				c-0.9,0.8-1.2,1.4-1.3,1.3c0,0,0.1-0.2,0.2-0.4c0.2-0.3,0.5-0.6,0.9-1.1c0.9-0.8,2.4-1.8,4.5-2.3c2.1-0.5,4.8-0.3,7.5,0.6
				c2.7,0.8,5.5,2.3,8.5,3.6c1.5,0.6,3,1.2,4.5,1.5c1.5,0.3,3,0.4,4.4,0.4c2.8-0.1,5.3-0.8,7.2-1.7
				C445.1,448.4,446.8,446.2,446.9,446.3z"/>
		</g>
		<g>
			<path class="st5" d="M447.3,442.6c0,0-0.1,0.1-0.3,0.4c-0.2,0.2-0.6,0.6-1,0.9c-0.9,0.8-2.4,1.8-4.3,2.7c-2,0.9-4.5,1.6-7.4,1.8
				c-1.4,0.1-3,0-4.5-0.3c-1.5-0.3-3.1-0.8-4.6-1.3c-3.1-1.1-5.9-2.4-8.7-3.2c-2.7-0.8-5.3-1-7.4-0.7c-2.1,0.3-3.7,1.1-4.7,1.8
				c-1,0.7-1.4,1.2-1.4,1.2c0,0,0.1-0.1,0.3-0.4c0.2-0.2,0.5-0.6,1-0.9c1-0.7,2.6-1.6,4.7-2c2.2-0.4,4.8-0.2,7.6,0.6
				c2.8,0.7,5.6,2,8.7,3.1c1.5,0.6,3.1,1,4.6,1.3c1.5,0.3,3,0.4,4.4,0.3c2.8-0.1,5.3-0.8,7.3-1.6
				C445.4,444.6,447.2,442.5,447.3,442.6z"/>
		</g>
	</g>
</g>
</svg>
